<?xml version="1.0" encoding="UTF-8" standalone="no"?>
<!-- Created with Inkscape (http://www.inkscape.org/) -->

<svg
   version="1.1"
   id="svg132"
   width="793.70081"
   height="1122.5197"
   viewBox="0 0 793.70081 1122.5197"
   sodipodi:docname="JoyV4.svg"
   xml:space="preserve"
   inkscape:version="1.2.1 (9c6d41e410, 2022-07-14)"
   xmlns:inkscape="http://www.inkscape.org/namespaces/inkscape"
   xmlns:sodipodi="http://sodipodi.sourceforge.net/DTD/sodipodi-0.dtd"
   xmlns="http://www.w3.org/2000/svg"
   xmlns:svg="http://www.w3.org/2000/svg"><defs
     id="defs136"><clipPath
       clipPathUnits="userSpaceOnUse"
       id="clipPath178"><path
         d="m 160.918,171.391 h 99.211 v 99.211 h -99.211 z"
         id="path176" /></clipPath><clipPath
       clipPathUnits="userSpaceOnUse"
       id="clipPath188"><path
         d="M 0,0 H 596 V 842 H 0 Z"
         id="path186" /></clipPath><clipPath
       clipPathUnits="userSpaceOnUse"
       id="clipPath198"><path
         d="m 160.918,171.391 h 99.211 v 99.211 h -99.211 z"
         id="path196" /></clipPath><clipPath
       clipPathUnits="userSpaceOnUse"
       id="clipPath210"><path
         d="m 27.664,38.145 h 99.211 v 99.211 H 27.664 Z"
         id="path208" /></clipPath><clipPath
       clipPathUnits="userSpaceOnUse"
       id="clipPath222"><path
         d="m 294.176,304.633 h 99.211 v 99.211 h -99.211 z"
         id="path220" /></clipPath><clipPath
       clipPathUnits="userSpaceOnUse"
       id="clipPath240"><path
         d="m 160.918,496.676 h 99.211 v 99.211 h -99.211 z"
         id="path238" /></clipPath></defs><sodipodi:namedview
     id="namedview134"
     pagecolor="#ffffff"
     bordercolor="#000000"
     borderopacity="0.25"
     inkscape:showpageshadow="2"
     inkscape:pageopacity="0.0"
     inkscape:pagecheckerboard="0"
     inkscape:deskcolor="#d1d1d1"
     showgrid="false"
     inkscape:zoom="1.0582794"
     inkscape:cx="333.08784"
     inkscape:cy="435.61274"
     inkscape:window-width="1920"
     inkscape:window-height="1017"
     inkscape:window-x="1912"
     inkscape:window-y="32"
     inkscape:window-maximized="1"
     inkscape:current-layer="g140"><inkscape:page
       x="0"
       y="0"
       id="page138"
       width="793.70081"
       height="1122.5197" /></sodipodi:namedview><g
     id="g140"
     inkscape:groupmode="layer"
     inkscape:label="Page 1"
     transform="matrix(1.3333333,0,0,1.3333333,0,7.4729658e-5)"><g
       id="g144"><path
         d="M 402.5,167.832 H 263.684 V 29.02 H 18.551 V 274.16 H 157.359 V 412.969 H 402.5 Z"
         style="fill:#ffffff;fill-opacity:1;fill-rule:nonzero;stroke:#000000;stroke-width:0.75;stroke-linecap:butt;stroke-linejoin:miter;stroke-miterlimit:4;stroke-dasharray:none;stroke-opacity:1"
         id="path146" /></g><g
       id="g148"><path
         d="m 164.629,41.855 h 91.793 v 91.793 h -91.793 z"
         style="fill:none;stroke:#000000;stroke-width:0.441583;stroke-linecap:butt;stroke-linejoin:miter;stroke-miterlimit:4;stroke-dasharray:none;stroke-opacity:1"
         id="path150" /></g><path
       d="m 174.645,87.754 c 0,19.789 16.089,35.879 35.878,35.879 19.793,0 35.883,-16.09 35.883,-35.879 0,-19.793 -16.09,-35.883 -35.883,-35.883 -19.789,0 -35.878,16.09 -35.878,35.883 z m 38.675,-19.34 12.012,12.012 c 0.758,0.754 1.133,1.738 1.133,2.793 0,1.058 -0.379,2.043 -1.133,2.797 -1.512,1.511 -4.004,1.511 -5.59,0 l -5.289,-5.289 v 23.644 c 0,2.191 -1.734,3.926 -3.93,3.926 -2.187,0 -3.925,-1.735 -3.925,-3.926 V 80.652 l -5.289,5.286 c -1.508,1.511 -4,1.511 -5.59,0 -1.508,-1.508 -1.508,-4.004 0,-5.586 L 207.73,68.336 c 1.586,-1.508 4.004,-1.508 5.59,0.078 z"
       style="fill:#000000;fill-opacity:1;fill-rule:nonzero;stroke:none"
       id="path152" /><g
       id="g154"
       transform="scale(-1)"><path
         d="m -164.629,-308.34 h -91.793 v -91.793 h 91.793 z"
         style="fill:none;stroke:#000000;stroke-width:0.441583;stroke-linecap:butt;stroke-linejoin:miter;stroke-miterlimit:4;stroke-dasharray:none;stroke-opacity:1"
         id="path156" /></g><path
       d="m 246.406,354.238 c 0,-19.793 -16.09,-35.883 -35.883,-35.883 -19.793,0 -35.882,16.09 -35.882,35.883 0,19.793 16.089,35.883 35.882,35.883 19.793,0 35.883,-16.09 35.883,-35.883 z m -38.679,19.34 -12.008,-12.012 c -0.758,-0.757 -1.133,-1.738 -1.133,-2.796 0,-1.059 0.379,-2.04 1.133,-2.793 1.511,-1.512 4.004,-1.512 5.59,0 l 5.289,5.289 v -23.645 c 0,-2.191 1.734,-3.93 3.925,-3.93 2.192,0 3.93,1.739 3.93,3.93 v 23.719 l 5.289,-5.289 c 1.508,-1.508 4,-1.508 5.586,0 1.512,1.511 1.512,4.004 0,5.59 l -12.008,12.011 c -1.59,1.512 -4.004,1.512 -5.593,-0.074 z"
       style="fill:#000000;fill-opacity:1;fill-rule:nonzero;stroke:none"
       id="path158" /><g
       id="g160"
       transform="rotate(89.969966)"><path
         d="m 175.267,-389.56 91.793,10e-4 -0.002,91.793 -91.793,-0.002 z"
         style="fill:none;stroke:#000000;stroke-width:0.441583;stroke-linecap:butt;stroke-linejoin:miter;stroke-miterlimit:4;stroke-dasharray:none;stroke-opacity:1"
         id="path162" /></g><path
       d="m 343.762,185.102 c -19.793,0.007 -35.871,16.109 -35.864,35.898 0.012,19.793 16.11,35.875 35.899,35.863 19.793,-0.008 35.875,-16.109 35.867,-35.902 -0.012,-19.789 -16.109,-35.871 -35.902,-35.859 z m 19.359,38.668 -12.008,12.015 c -0.754,0.758 -1.734,1.133 -2.793,1.133 -1.058,0.004 -2.039,-0.375 -2.793,-1.129 -1.511,-1.512 -1.515,-4.004 -0.004,-5.594 l 5.286,-5.289 -23.645,0.012 c -2.191,0 -3.93,-1.734 -3.93,-3.926 0,-2.187 1.735,-3.93 3.926,-3.93 l 23.719,-0.011 -5.289,-5.285 c -1.512,-1.508 -1.512,-4 -0.004,-5.59 1.512,-1.512 4.004,-1.512 5.59,-0.004 l 12.019,12.004 c 1.512,1.586 1.512,4.004 -0.074,5.594 z"
       style="fill:#000000;fill-opacity:1;fill-rule:nonzero;stroke:none"
       id="path164" /><g
       id="g166"
       transform="rotate(-89.969966)"><path
         d="m -266.839,31.488 91.793,0.002 0.001,91.793 -91.793,0.001 z"
         style="fill:none;stroke:#000000;stroke-width:0.441583;stroke-linecap:butt;stroke-linejoin:miter;stroke-miterlimit:4;stroke-dasharray:none;stroke-opacity:1"
         id="path168" /></g><path
       d="m 77.25,256.863 c 19.793,0.008 35.891,-16.07 35.902,-35.863 0.008,-19.793 -16.074,-35.891 -35.863,-35.902 -19.793,-0.008 -35.891,16.07 -35.902,35.863 -0.012,19.793 16.07,35.891 35.863,35.902 z M 57.93,218.176 69.949,206.172 c 0.754,-0.758 1.739,-1.133 2.797,-1.133 1.059,0 2.039,0.379 2.793,1.133 1.512,1.516 1.508,4.008 -0.004,5.594 l -5.289,5.285 23.645,0.011 c 2.191,0 3.925,1.739 3.925,3.93 -0.004,2.192 -1.738,3.926 -3.929,3.926 l -23.723,-0.012 5.285,5.289 c 1.512,1.512 1.512,4.004 0,5.59 -1.511,1.512 -4.008,1.508 -5.59,-0.004 L 57.852,223.766 c -1.508,-1.586 -1.508,-4.004 0.078,-5.59 z"
       style="fill:#000000;fill-opacity:1;fill-rule:nonzero;stroke:none"
       id="path170" /><g
       id="g228"><g
         id="g230"><path
           d="M 18.086,485.637 H 402.965 V 606.922 H 18.086 Z"
           style="fill:#ffffff;fill-opacity:1;fill-rule:nonzero;stroke:#000000;stroke-width:0.727328;stroke-linecap:butt;stroke-linejoin:miter;stroke-miterlimit:4;stroke-dasharray:none;stroke-opacity:1"
           id="path232" /></g></g><g
       id="g246"><g
         id="g248"
         transform="scale(1,0.999976)"><path
           d="m 27.902,496.922 h 98.734 v 98.741 H 27.902 Z"
           style="fill:none;stroke:#000000;stroke-width:0.474988;stroke-linecap:butt;stroke-linejoin:miter;stroke-miterlimit:4;stroke-dasharray:none;stroke-opacity:1"
           id="path250" /></g><path
         d="m 69.594,540.426 -19.176,13.5 -8.695,-9.367 35.504,-35.278 35.593,35.278 -8.699,9.367 -19.172,-13.5 z"
         style="fill:#000000;fill-opacity:1;fill-rule:evenodd;stroke:none"
         id="path252" /><path
         d="M 95.824,537.297 H 58.715 l 9.406,45.98 h 18.293 z"
         style="fill:#000000;fill-opacity:1;fill-rule:evenodd;stroke:none"
         id="path254" /><path
         d="m 347.352,557.824 8.925,-8.211 4.051,5.699 -16.527,21.446 -16.571,-21.446 4.051,-5.699 8.926,8.211 z"
         style="fill:#000000;fill-opacity:1;fill-rule:evenodd;stroke:none"
         id="path256" /><path
         d="m 355.91,515.801 h -24.258 l 6.149,42.836 h 11.957 z"
         style="fill:#000000;fill-opacity:1;fill-rule:evenodd;stroke:none"
         id="path258" /><g
         id="g260"
         transform="scale(1,0.999976)"><path
           d="m 294.41,496.922 h 98.738 v 98.741 H 294.41 Z"
           style="fill:none;stroke:#000000;stroke-width:0.474988;stroke-linecap:butt;stroke-linejoin:miter;stroke-miterlimit:4;stroke-dasharray:none;stroke-opacity:1"
           id="path262" /></g></g><g
       style="shape-rendering:crispEdges"
       id="g356"
       transform="matrix(16.535433,0,0,16.535433,27.663371,38.145201)"><rect
         x="0"
         y="0"
         width="6"
         height="6"
         fill="#000000"
         id="rect314" /><rect
         width="1"
         height="1"
         x="1"
         y="1"
         fill="#ffffff"
         id="rect316" /><rect
         width="1.5"
         height="1"
         x="3"
         y="1"
         fill="#ffffff"
         id="rect318" /><rect
         width="1"
         height="1"
         x="4"
         y="1"
         fill="#ffffff"
         id="rect320" /><rect
         width="1"
         height="1.5"
         x="4"
         y="1"
         fill="#ffffff"
         id="rect322" /><rect
         width="1"
         height="1"
         x="2"
         y="2"
         fill="#ffffff"
         id="rect324" /><rect
         width="1"
         height="1"
         x="4"
         y="2"
         fill="#ffffff"
         id="rect326" /><rect
         width="1"
         height="1.5"
         x="4"
         y="2"
         fill="#ffffff"
         id="rect328" /><rect
         width="1.5"
         height="1"
         x="3"
         y="3"
         fill="#ffffff"
         id="rect330" /><rect
         width="1"
         height="1.5"
         x="3"
         y="3"
         fill="#ffffff"
         id="rect332" /><rect
         width="1"
         height="1"
         x="4"
         y="3"
         fill="#ffffff"
         id="rect334" /><rect
         width="1"
         height="1"
         x="3"
         y="4"
         fill="#ffffff"
         id="rect336" /></g><g
       style="shape-rendering:crispEdges"
       id="g400"
       transform="matrix(16.535433,0,0,16.535433,160.9192,171.3882)"><rect
         x="0"
         y="0"
         width="6"
         height="6"
         fill="#000000"
         id="rect358" /><rect
         width="1.5"
         height="1"
         x="1"
         y="2"
         fill="#ffffff"
         id="rect360" /><rect
         width="1"
         height="1.5"
         x="1"
         y="2"
         fill="#ffffff"
         id="rect362" /><rect
         width="1.5"
         height="1"
         x="2"
         y="2"
         fill="#ffffff"
         id="rect364" /><rect
         width="1.5"
         height="1"
         x="3"
         y="2"
         fill="#ffffff"
         id="rect366" /><rect
         width="1"
         height="1"
         x="4"
         y="2"
         fill="#ffffff"
         id="rect368" /><rect
         width="1"
         height="1.5"
         x="4"
         y="2"
         fill="#ffffff"
         id="rect370" /><rect
         width="1"
         height="1"
         x="1"
         y="3"
         fill="#ffffff"
         id="rect372" /><rect
         width="1"
         height="1.5"
         x="1"
         y="3"
         fill="#ffffff"
         id="rect374" /><rect
         width="1"
         height="1"
         x="4"
         y="3"
         fill="#ffffff"
         id="rect376" /><rect
         width="1"
         height="1"
         x="1"
         y="4"
         fill="#ffffff"
         id="rect378" /><rect
         width="1"
         height="1"
         x="3"
         y="4"
         fill="#ffffff"
         id="rect380" /></g><g
       style="shape-rendering:crispEdges"
       id="g444"
       transform="matrix(16.535433,0,0,16.535433,294.1747,304.6317)"><rect
         x="0"
         y="0"
         width="6"
         height="6"
         fill="#000000"
         id="rect402" /><rect
         width="1.5"
         height="1"
         x="3"
         y="1"
         fill="#ffffff"
         id="rect404" /><rect
         width="1"
         height="1.5"
         x="3"
         y="1"
         fill="#ffffff"
         id="rect406" /><rect
         width="1"
         height="1"
         x="4"
         y="1"
         fill="#ffffff"
         id="rect408" /><rect
         width="1"
         height="1.5"
         x="4"
         y="1"
         fill="#ffffff"
         id="rect410" /><rect
         width="1.5"
         height="1"
         x="3"
         y="2"
         fill="#ffffff"
         id="rect412" /><rect
         width="1"
         height="1.5"
         x="3"
         y="2"
         fill="#ffffff"
         id="rect414" /><rect
         width="1"
         height="1"
         x="4"
         y="2"
         fill="#ffffff"
         id="rect416" /><rect
         width="1"
         height="1"
         x="3"
         y="3"
         fill="#ffffff"
         id="rect418" /><rect
         width="1.5"
         height="1"
         x="1"
         y="4"
         fill="#ffffff"
         id="rect420" /><rect
         width="1"
         height="1"
         x="2"
         y="4"
         fill="#ffffff"
         id="rect422" /><rect
         width="1"
         height="1"
         x="4"
         y="4"
         fill="#ffffff"
         id="rect424" /></g><g
       style="shape-rendering:crispEdges"
       id="g485"
       transform="matrix(16.535433,0,0,16.535433,160.9187,496.67309)"><rect
         x="0"
         y="0"
         width="6"
         height="6"
         fill="#000000"
         id="rect446" /><rect
         width="1"
         height="1"
         x="1"
         y="1"
         fill="#ffffff"
         id="rect448" /><rect
         width="1"
         height="1.5"
         x="1"
         y="1"
         fill="#ffffff"
         id="rect450" /><rect
         width="1"
         height="1"
         x="4"
         y="1"
         fill="#ffffff"
         id="rect452" /><rect
         width="1"
         height="1.5"
         x="4"
         y="1"
         fill="#ffffff"
         id="rect454" /><rect
         width="1"
         height="1"
         x="1"
         y="2"
         fill="#ffffff"
         id="rect456" /><rect
         width="1"
         height="1"
         x="4"
         y="2"
         fill="#ffffff"
         id="rect458" /><rect
         width="1"
         height="1"
         x="2"
         y="3"
         fill="#ffffff"
         id="rect460" /><rect
         width="1"
         height="1.5"
         x="2"
         y="3"
         fill="#ffffff"
         id="rect462" /><rect
         width="1.5"
         height="1"
         x="2"
         y="4"
         fill="#ffffff"
         id="rect464" /><rect
         width="1"
         height="1"
         x="3"
         y="4"
         fill="#ffffff"
         id="rect466" /></g><text
       xml:space="preserve"
       style="font-size:8px;font-family:'Times New Roman';-inkscape-font-specification:'Times New Roman, ';text-align:center;text-anchor:middle;fill:#000000;stroke-width:2.25;stroke-linecap:round;stroke-linejoin:round"
       x="77.2892"
       y="145.08296"
       id="text689"><tspan
         sodipodi:role="line"
         id="tspan687"
         style="font-size:8px;stroke-width:2.25"
         x="77.2892"
         y="145.08296">0</tspan></text><text
       xml:space="preserve"
       style="font-size:8px;font-family:'Times New Roman';-inkscape-font-specification:'Times New Roman, ';text-align:center;text-anchor:middle;fill:#000000;stroke-width:2.25;stroke-linecap:round;stroke-linejoin:round"
       x="210.60558"
       y="278.25589"
       id="text689-2"><tspan
         sodipodi:role="line"
         id="tspan687-3"
         style="font-size:8px;stroke-width:2.25"
         x="210.60558"
         y="278.25589">1</tspan></text><text
       xml:space="preserve"
       style="font-size:8px;font-family:'Times New Roman';-inkscape-font-specification:'Times New Roman, ';text-align:center;text-anchor:middle;fill:#000000;stroke-width:2.25;stroke-linecap:round;stroke-linejoin:round"
       x="210.60507"
       y="603.54962"
       id="text689-2-7"><tspan
         sodipodi:role="line"
         id="tspan687-3-7"
         style="font-size:8px;stroke-width:2.25"
         x="210.60507"
         y="603.54962">3</tspan></text><text
       xml:space="preserve"
       style="font-size:8px;font-family:'Times New Roman';-inkscape-font-specification:'Times New Roman, ';text-align:center;text-anchor:middle;fill:#000000;stroke-width:2.25;stroke-linecap:round;stroke-linejoin:round"
       x="343.95093"
       y="411.13995"
       id="text689-1"><tspan
         sodipodi:role="line"
         id="tspan687-35"
         style="font-size:8px;stroke-width:2.25"
         x="343.95093"
         y="411.13995">2</tspan></text></g></svg>
