<?xml version="1.0" encoding="UTF-8" standalone="no"?>
<!-- Created with Inkscape (http://www.inkscape.org/) -->

<svg
   version="1.1"
   id="svg132"
   width="793.70081"
   height="1122.5197"
   viewBox="0 0 793.70081 1122.5197"
   sodipodi:docname="JoyV4_RobotGrab.svg"
   xml:space="preserve"
   inkscape:version="1.2.1 (9c6d41e410, 2022-07-14)"
   xmlns:inkscape="http://www.inkscape.org/namespaces/inkscape"
   xmlns:sodipodi="http://sodipodi.sourceforge.net/DTD/sodipodi-0.dtd"
   xmlns="http://www.w3.org/2000/svg"
   xmlns:svg="http://www.w3.org/2000/svg"><defs
     id="defs136"><clipPath
       clipPathUnits="userSpaceOnUse"
       id="clipPath178"><path
         d="m 160.918,171.391 h 99.211 v 99.211 h -99.211 z"
         id="path176" /></clipPath><clipPath
       clipPathUnits="userSpaceOnUse"
       id="clipPath188"><path
         d="M 0,0 H 596 V 842 H 0 Z"
         id="path186" /></clipPath><clipPath
       clipPathUnits="userSpaceOnUse"
       id="clipPath198"><path
         d="m 160.918,171.391 h 99.211 v 99.211 h -99.211 z"
         id="path196" /></clipPath><clipPath
       clipPathUnits="userSpaceOnUse"
       id="clipPath210"><path
         d="m 27.664,38.145 h 99.211 v 99.211 H 27.664 Z"
         id="path208" /></clipPath><clipPath
       clipPathUnits="userSpaceOnUse"
       id="clipPath222"><path
         d="m 294.176,304.633 h 99.211 v 99.211 h -99.211 z"
         id="path220" /></clipPath><clipPath
       clipPathUnits="userSpaceOnUse"
       id="clipPath240"><path
         d="m 160.918,496.676 h 99.211 v 99.211 h -99.211 z"
         id="path238" /></clipPath><symbol
       id="x"
       overflow="visible"><path
         d="m18.766-1.125c-0.96875 0.5-1.9805 0.875-3.0312 1.125-1.043 0.25781-2.1367 0.39062-3.2812 0.39062-3.3984 0-6.0898-0.94531-8.0781-2.8438-1.9922-1.9062-2.9844-4.4844-2.9844-7.7344 0-3.2578 0.99219-5.8359 2.9844-7.7344 1.9883-1.9062 4.6797-2.8594 8.0781-2.8594 1.1445 0 2.2383 0.13281 3.2812 0.39062 1.0508 0.25 2.0625 0.625 3.0312 1.125v4.2188c-0.98047-0.65625-1.9453-1.1406-2.8906-1.4531-0.94922-0.3125-1.9492-0.46875-3-0.46875-1.875 0-3.3516 0.60547-4.4219 1.8125-1.0742 1.1992-1.6094 2.8555-1.6094 4.9688 0 2.1055 0.53516 3.7617 1.6094 4.9688 1.0703 1.1992 2.5469 1.7969 4.4219 1.7969 1.0508 0 2.0508-0.14844 3-0.45312 0.94531-0.3125 1.9102-0.80078 2.8906-1.4688z"
         id="path5889" /></symbol><symbol
       id="c"
       overflow="visible"><path
         d="m13.734-11.141c-0.4375-0.19531-0.87109-0.34375-1.2969-0.4375-0.41797-0.10156-0.83984-0.15625-1.2656-0.15625-1.2617 0-2.2305 0.40625-2.9062 1.2188-0.67969 0.80469-1.0156 1.9531-1.0156 3.4531v7.0625h-4.8906v-15.312h4.8906v2.5156c0.625-1 1.3438-1.7266 2.1562-2.1875 0.82031-0.46875 1.8008-0.70312 2.9375-0.70312 0.16406 0 0.34375 0.011719 0.53125 0.03125 0.19531 0.011719 0.47656 0.039062 0.84375 0.078125z"
         id="path5892" /></symbol><symbol
       id="a"
       overflow="visible"><path
         d="m17.641-7.7031v1.4062h-11.453c0.125 1.1484 0.53906 2.0078 1.25 2.5781 0.70703 0.57422 1.7031 0.85938 2.9844 0.85938 1.0312 0 2.082-0.14844 3.1562-0.45312 1.082-0.3125 2.1914-0.77344 3.3281-1.3906v3.7656c-1.1562 0.4375-2.3125 0.76562-3.4688 0.98438-1.1562 0.22656-2.3125 0.34375-3.4688 0.34375-2.7734 0-4.9297-0.70312-6.4688-2.1094-1.5312-1.4062-2.2969-3.3789-2.2969-5.9219 0-2.5 0.75391-4.4609 2.2656-5.8906 1.5078-1.4375 3.582-2.1562 6.2188-2.1562 2.4062 0 4.332 0.73047 5.7812 2.1875 1.4453 1.4492 2.1719 3.3828 2.1719 5.7969zm-5.0312-1.625c0-0.92578-0.27344-1.6719-0.8125-2.2344-0.54297-0.57031-1.25-0.85938-2.125-0.85938-0.94922 0-1.7188 0.26562-2.3125 0.79688s-0.96484 1.2969-1.1094 2.2969z"
         id="path5895" /></symbol><symbol
       id="l"
       overflow="visible"><path
         d="m9.2188-6.8906c-1.0234 0-1.793 0.17188-2.3125 0.51562-0.51172 0.34375-0.76562 0.85547-0.76562 1.5312 0 0.625 0.20703 1.1172 0.625 1.4688 0.41406 0.34375 0.98828 0.51562 1.7188 0.51562 0.92578 0 1.7031-0.32812 2.3281-0.98438 0.63281-0.66406 0.95312-1.4922 0.95312-2.4844v-0.5625zm7.4688-1.8438v8.7344h-4.9219v-2.2656c-0.65625 0.92969-1.3984 1.6055-2.2188 2.0312-0.82422 0.41406-1.8242 0.625-3 0.625-1.5859 0-2.8711-0.45703-3.8594-1.375-0.99219-0.92578-1.4844-2.1289-1.4844-3.6094 0-1.7891 0.61328-3.1016 1.8438-3.9375 1.2383-0.84375 3.1797-1.2656 5.8281-1.2656h2.8906v-0.39062c0-0.76953-0.30859-1.332-0.92188-1.6875-0.61719-0.36328-1.5703-0.54688-2.8594-0.54688-1.0547 0-2.0312 0.10547-2.9375 0.3125-0.89844 0.21094-1.7305 0.52344-2.5 0.9375v-3.7344c1.0391-0.25 2.0859-0.44141 3.1406-0.57812 1.0625-0.13281 2.125-0.20312 3.1875-0.20312 2.7578 0 4.75 0.54688 5.9688 1.6406 1.2266 1.0859 1.8438 2.8555 1.8438 5.3125z"
         id="path5898" /></symbol><symbol
       id="b"
       overflow="visible"><path
         d="m7.7031-19.656v4.3438h5.0469v3.5h-5.0469v6.5c0 0.71094 0.14062 1.1875 0.42188 1.4375s0.83594 0.375 1.6719 0.375h2.5156v3.5h-4.1875c-1.9375 0-3.3125-0.39844-4.125-1.2031-0.80469-0.8125-1.2031-2.1797-1.2031-4.1094v-6.5h-2.4219v-3.5h2.4219v-4.3438z"
         id="path5901" /></symbol><symbol
       id="k"
       overflow="visible"><path
         d="m12.766-13.078v-8.2031h4.9219v21.281h-4.9219v-2.2188c-0.66797 0.90625-1.4062 1.5703-2.2188 1.9844s-1.7578 0.625-2.8281 0.625c-1.8867 0-3.4336-0.75-4.6406-2.25-1.2109-1.5-1.8125-3.4258-1.8125-5.7812 0-2.3633 0.60156-4.2969 1.8125-5.7969 1.207-1.5 2.7539-2.25 4.6406-2.25 1.0625 0 2 0.21484 2.8125 0.64062 0.82031 0.42969 1.5664 1.0859 2.2344 1.9688zm-3.2188 9.9219c1.0391 0 1.8359-0.37891 2.3906-1.1406 0.55078-0.76953 0.82812-1.8828 0.82812-3.3438 0-1.457-0.27734-2.5664-0.82812-3.3281-0.55469-0.76953-1.3516-1.1562-2.3906-1.1562-1.043 0-1.8398 0.38672-2.3906 1.1562-0.55469 0.76172-0.82812 1.8711-0.82812 3.3281 0 1.4609 0.27344 2.5742 0.82812 3.3438 0.55078 0.76172 1.3477 1.1406 2.3906 1.1406z"
         id="path5904" /></symbol><symbol
       id="j"
       overflow="visible"><path
         d="m10.5-3.1562c1.0508 0 1.8516-0.37891 2.4062-1.1406 0.55078-0.76953 0.82812-1.8828 0.82812-3.3438 0-1.457-0.27734-2.5664-0.82812-3.3281-0.55469-0.76953-1.3555-1.1562-2.4062-1.1562-1.0547 0-1.8594 0.38672-2.4219 1.1562-0.55469 0.77344-0.82812 1.8828-0.82812 3.3281 0 1.4492 0.27344 2.5586 0.82812 3.3281 0.5625 0.77344 1.3672 1.1562 2.4219 1.1562zm-3.25-9.9219c0.67578-0.88281 1.4219-1.5391 2.2344-1.9688 0.82031-0.42578 1.7656-0.64062 2.8281-0.64062 1.8945 0 3.4453 0.75 4.6562 2.25 1.207 1.5 1.8125 3.4336 1.8125 5.7969 0 2.3555-0.60547 4.2812-1.8125 5.7812-1.2109 1.5-2.7617 2.25-4.6562 2.25-1.0625 0-2.0078-0.21094-2.8281-0.625-0.8125-0.42578-1.5586-1.0859-2.2344-1.9844v2.2188h-4.8906v-21.281h4.8906z"
         id="path5907" /></symbol><symbol
       id="i"
       overflow="visible"><path
         d="m0.34375-15.312h4.8906l4.125 10.391 3.5-10.391h4.8906l-6.4375 16.766c-0.64844 1.6953-1.4023 2.8828-2.2656 3.5625-0.86719 0.6875-2 1.0312-3.4062 1.0312h-2.8438v-3.2188h1.5312c0.83203 0 1.4375-0.13672 1.8125-0.40625 0.38281-0.26172 0.67969-0.73047 0.89062-1.4062l0.14062-0.42188z"
         id="path5910" /></symbol><symbol
       id="h"
       overflow="visible"><path
         d="m14.953-3.7188h-8.2188l-1.3125 3.7188h-5.2812l7.5625-20.406h6.2656l7.5625 20.406h-5.2812zm-6.9062-3.7812h5.5781l-2.7812-8.125z"
         id="path5913" /></symbol><symbol
       id="w"
       overflow="visible"><path
         d="m2.3594-21.281h4.8906v21.281h-4.8906z"
         id="path5916" /></symbol><symbol
       id="g"
       overflow="visible"><path
         d="m2.3594-15.312h4.8906v15.312h-4.8906zm0-5.9688h4.8906v4h-4.8906z"
         id="path5919" /></symbol><symbol
       id="f"
       overflow="visible"><path
         d="m14.719-14.828v3.9844c-0.65625-0.45703-1.3242-0.79688-2-1.0156-0.66797-0.21875-1.3594-0.32812-2.0781-0.32812-1.3672 0-2.4336 0.40234-3.2031 1.2031-0.76172 0.79297-1.1406 1.9062-1.1406 3.3438 0 1.4297 0.37891 2.543 1.1406 3.3438 0.76953 0.79297 1.8359 1.1875 3.2031 1.1875 0.75781 0 1.4844-0.10938 2.1719-0.32812 0.6875-0.22656 1.3203-0.56641 1.9062-1.0156v4c-0.76172 0.28125-1.5391 0.48828-2.3281 0.625-0.78125 0.14453-1.5742 0.21875-2.375 0.21875-2.7617 0-4.9219-0.70703-6.4844-2.125-1.5547-1.4141-2.3281-3.3828-2.3281-5.9062 0-2.5312 0.77344-4.5039 2.3281-5.9219 1.5625-1.4141 3.7227-2.125 6.4844-2.125 0.80078 0 1.5938 0.074219 2.375 0.21875 0.78125 0.13672 1.5547 0.35156 2.3281 0.64062z"
         id="path5922" /></symbol><symbol
       id="v"
       overflow="visible"><path
         d="m7.8281-16.438v12.453h1.8906c2.1562 0 3.8008-0.53125 4.9375-1.5938 1.1328-1.0625 1.7031-2.6133 1.7031-4.6562 0-2.0195-0.57031-3.5547-1.7031-4.6094-1.125-1.0625-2.7734-1.5938-4.9375-1.5938zm-5.25-3.9688h5.5469c3.0938 0 5.3984 0.21875 6.9219 0.65625 1.5195 0.4375 2.8203 1.1875 3.9062 2.25 0.95703 0.91797 1.6641 1.9805 2.125 3.1875 0.46875 1.1992 0.70312 2.5586 0.70312 4.0781 0 1.543-0.23438 2.918-0.70312 4.125-0.46094 1.2109-1.168 2.2773-2.125 3.2031-1.0938 1.0547-2.4062 1.8047-3.9375 2.25-1.5312 0.4375-3.8281 0.65625-6.8906 0.65625h-5.5469z"
         id="path5925" /></symbol><symbol
       id="u"
       overflow="visible"><path
         d="m14.312-14.828v3.7188c-1.043-0.4375-2.0547-0.76562-3.0312-0.98438-0.98047-0.21875-1.9023-0.32812-2.7656-0.32812-0.92969 0-1.6211 0.11719-2.0781 0.34375-0.44922 0.23047-0.67188 0.58984-0.67188 1.0781 0 0.38672 0.17188 0.68359 0.51562 0.89062 0.34375 0.21094 0.95703 0.36719 1.8438 0.46875l0.85938 0.125c2.5078 0.32422 4.1953 0.85156 5.0625 1.5781 0.86328 0.73047 1.2969 1.8711 1.2969 3.4219 0 1.6367-0.60547 2.8672-1.8125 3.6875-1.1992 0.8125-2.9922 1.2188-5.375 1.2188-1.0234 0-2.0742-0.078125-3.1562-0.23438-1.0742-0.15625-2.1797-0.39453-3.3125-0.71875v-3.7188c0.96875 0.48047 1.9609 0.83984 2.9844 1.0781 1.0312 0.23047 2.0781 0.34375 3.1406 0.34375 0.95703 0 1.6758-0.12891 2.1562-0.39062 0.47656-0.26953 0.71875-0.66406 0.71875-1.1875 0-0.4375-0.16797-0.75781-0.5-0.96875-0.33594-0.21875-0.99609-0.38281-1.9844-0.5l-0.85938-0.10938c-2.1797-0.26953-3.7031-0.77344-4.5781-1.5156-0.875-0.73828-1.3125-1.8594-1.3125-3.3594 0-1.625 0.55078-2.8281 1.6562-3.6094 1.1133-0.78906 2.8203-1.1875 5.125-1.1875 0.89453 0 1.8359 0.074219 2.8281 0.21875 1 0.13672 2.082 0.35156 3.25 0.64062z"
         id="path5928" /></symbol><symbol
       id="t"
       overflow="visible"><path
         d="m12.766-2.5938c-0.66797 0.88672-1.4062 1.543-2.2188 1.9688-0.8125 0.41797-1.7578 0.625-2.8281 0.625-1.8672 0-3.4062-0.73438-4.625-2.2031-1.2188-1.4766-1.8281-3.3516-1.8281-5.625 0-2.2891 0.60938-4.1641 1.8281-5.625 1.2188-1.4688 2.7578-2.2031 4.625-2.2031 1.0703 0 2.0156 0.21484 2.8281 0.64062 0.8125 0.41797 1.5508 1.0742 2.2188 1.9688v-2.2656h4.9219v13.766c0 2.457-0.77734 4.3359-2.3281 5.6406-1.5547 1.3008-3.8086 1.9531-6.7656 1.9531-0.94922 0-1.8711-0.074219-2.7656-0.21875-0.89844-0.14844-1.7969-0.37109-2.7031-0.67188v-3.8125c0.86328 0.48828 1.7031 0.85156 2.5156 1.0938 0.82031 0.23828 1.6484 0.35938 2.4844 0.35938 1.6016 0 2.7734-0.35156 3.5156-1.0469 0.75-0.69922 1.125-1.7969 1.125-3.2969zm-3.2188-9.5312c-1.0117 0-1.8047 0.375-2.375 1.125-0.5625 0.74219-0.84375 1.7969-0.84375 3.1719 0 1.3984 0.26953 2.4609 0.8125 3.1875 0.55078 0.71875 1.3516 1.0781 2.4062 1.0781 1.0195 0 1.8125-0.36719 2.375-1.1094 0.5625-0.75 0.84375-1.8008 0.84375-3.1562 0-1.375-0.28125-2.4297-0.84375-3.1719-0.5625-0.75-1.3555-1.125-2.375-1.125z"
         id="path5931" /></symbol><symbol
       id="e"
       overflow="visible"><path
         d="m17.75-9.3281v9.3281h-4.9219v-7.1406c0-1.3203-0.03125-2.2344-0.09375-2.7344s-0.16797-0.86719-0.3125-1.1094c-0.1875-0.3125-0.44922-0.55469-0.78125-0.73438-0.32422-0.17578-0.69531-0.26562-1.1094-0.26562-1.0234 0-1.8242 0.39844-2.4062 1.1875-0.58594 0.78125-0.875 1.8711-0.875 3.2656v7.5312h-4.8906v-15.312h4.8906v2.2344c0.73828-0.88281 1.5195-1.5391 2.3438-1.9688 0.83203-0.42578 1.75-0.64062 2.75-0.64062 1.7695 0 3.1133 0.54688 4.0312 1.6406 0.91406 1.0859 1.375 2.6562 1.375 4.7188z"
         id="path5934" /></symbol><symbol
       id="s"
       overflow="visible"><path
         d="m12.422-21.281v3.2188h-2.7031c-0.6875 0-1.1719 0.125-1.4531 0.375-0.27344 0.25-0.40625 0.6875-0.40625 1.3125v1.0625h4.1875v3.5h-4.1875v11.812h-4.8906v-11.812h-2.4375v-3.5h2.4375v-1.0625c0-1.6641 0.46094-2.8984 1.3906-3.7031 0.92578-0.80078 2.3672-1.2031 4.3281-1.2031z"
         id="path5937" /></symbol><symbol
       id="d"
       overflow="visible"><path
         d="m9.6406-12.188c-1.0859 0-1.9141 0.39062-2.4844 1.1719-0.57422 0.78125-0.85938 1.9062-0.85938 3.375s0.28516 2.5938 0.85938 3.375c0.57031 0.77344 1.3984 1.1562 2.4844 1.1562 1.0625 0 1.875-0.38281 2.4375-1.1562 0.57031-0.78125 0.85938-1.9062 0.85938-3.375s-0.28906-2.5938-0.85938-3.375c-0.5625-0.78125-1.375-1.1719-2.4375-1.1719zm0-3.5c2.6328 0 4.6914 0.71484 6.1719 2.1406 1.4766 1.418 2.2188 3.3867 2.2188 5.9062 0 2.5117-0.74219 4.4805-2.2188 5.9062-1.4805 1.418-3.5391 2.125-6.1719 2.125-2.6484 0-4.7148-0.70703-6.2031-2.125-1.4922-1.4258-2.2344-3.3945-2.2344-5.9062 0-2.5195 0.74219-4.4883 2.2344-5.9062 1.4883-1.4258 3.5547-2.1406 6.2031-2.1406z"
         id="path5940" /></symbol><symbol
       id="r"
       overflow="visible"><path
         d="m16.547-12.766c0.61328-0.94531 1.3477-1.6719 2.2031-2.1719 0.85156-0.5 1.7891-0.75 2.8125-0.75 1.7578 0 3.0977 0.54688 4.0156 1.6406 0.92578 1.0859 1.3906 2.6562 1.3906 4.7188v9.3281h-4.9219v-7.9844-0.35938c0.007813-0.13281 0.015625-0.32031 0.015625-0.5625 0-1.082-0.16406-1.8633-0.48438-2.3438-0.3125-0.48828-0.82422-0.73438-1.5312-0.73438-0.92969 0-1.6484 0.38672-2.1562 1.1562-0.51172 0.76172-0.77344 1.8672-0.78125 3.3125v7.5156h-4.9219v-7.9844c0-1.6953-0.14844-2.7852-0.4375-3.2656-0.29297-0.48828-0.8125-0.73438-1.5625-0.73438-0.9375 0-1.6641 0.38672-2.1719 1.1562-0.51172 0.76172-0.76562 1.8594-0.76562 3.2969v7.5312h-4.9219v-15.312h4.9219v2.2344c0.60156-0.86328 1.2891-1.5156 2.0625-1.9531 0.78125-0.4375 1.6406-0.65625 2.5781-0.65625 1.0625 0 2 0.25781 2.8125 0.76562 0.8125 0.51172 1.4258 1.2305 1.8438 2.1562z"
         id="path5943" /></symbol><symbol
       id="q"
       overflow="visible"><path
         d="m17.75-9.3281v9.3281h-4.9219v-7.1094c0-1.3438-0.03125-2.2656-0.09375-2.7656s-0.16797-0.86719-0.3125-1.1094c-0.1875-0.3125-0.44922-0.55469-0.78125-0.73438-0.32422-0.17578-0.69531-0.26562-1.1094-0.26562-1.0234 0-1.8242 0.39844-2.4062 1.1875-0.58594 0.78125-0.875 1.8711-0.875 3.2656v7.5312h-4.8906v-21.281h4.8906v8.2031c0.73828-0.88281 1.5195-1.5391 2.3438-1.9688 0.83203-0.42578 1.75-0.64062 2.75-0.64062 1.7695 0 3.1133 0.54688 4.0312 1.6406 0.91406 1.0859 1.375 2.6562 1.375 4.7188z"
         id="path5946" /></symbol><symbol
       id="p"
       overflow="visible"><path
         d="m2.5781-20.406h5.875l7.4219 14v-14h4.9844v20.406h-5.875l-7.4219-14v14h-4.9844z"
         id="path5949" /></symbol><symbol
       id="o"
       overflow="visible"><path
         d="m2.1875-5.9688v-9.3438h4.9219v1.5312c0 0.83594-0.007813 1.875-0.015625 3.125-0.011719 1.25-0.015625 2.0859-0.015625 2.5 0 1.2422 0.03125 2.1328 0.09375 2.6719 0.070313 0.54297 0.17969 0.93359 0.32812 1.1719 0.20703 0.32422 0.47266 0.57422 0.79688 0.75 0.32031 0.16797 0.69141 0.25 1.1094 0.25 1.0195 0 1.8203-0.39062 2.4062-1.1719 0.58203-0.78125 0.875-1.8672 0.875-3.2656v-7.5625h4.8906v15.312h-4.8906v-2.2188c-0.74219 0.89844-1.5234 1.5586-2.3438 1.9844-0.82422 0.41406-1.7344 0.625-2.7344 0.625-1.7617 0-3.1055-0.53906-4.0312-1.625-0.92969-1.082-1.3906-2.6602-1.3906-4.7344z"
         id="path5952" /></symbol><symbol
       id="n"
       overflow="visible"><path
         d="m2.5781-20.406h8.7344c2.5938 0 4.582 0.57812 5.9688 1.7344 1.3945 1.1484 2.0938 2.7891 2.0938 4.9219 0 2.1367-0.69922 3.7812-2.0938 4.9375-1.3867 1.1562-3.375 1.7344-5.9688 1.7344h-3.4844v7.0781h-5.25zm5.25 3.8125v5.7031h2.9219c1.0195 0 1.8047-0.25 2.3594-0.75 0.5625-0.5 0.84375-1.2031 0.84375-2.1094 0-0.91406-0.28125-1.6172-0.84375-2.1094-0.55469-0.48828-1.3398-0.73438-2.3594-0.73438z"
         id="path5955" /></symbol><symbol
       id="m"
       overflow="visible"><path
         d="m2.3594-15.312h4.8906v15.031c0 2.0508-0.49609 3.6172-1.4844 4.7031-0.98047 1.082-2.4062 1.625-4.2812 1.625h-2.4219v-3.2188h0.85938c0.92578 0 1.5625-0.21094 1.9062-0.625 0.35156-0.41797 0.53125-1.2461 0.53125-2.4844zm0-5.9688h4.8906v4h-4.8906z"
         id="path5958" /></symbol><symbol
       id="u-6"
       overflow="visible"><path
         d="m4.1719-0.25c-0.21094 0.11719-0.43359 0.19922-0.67188 0.25-0.23047 0.0625-0.47656 0.09375-0.73438 0.09375-0.75 0-1.3516-0.21094-1.7969-0.64062-0.4375-0.42578-0.65625-1-0.65625-1.7188 0-0.72656 0.21875-1.3008 0.65625-1.7188 0.44531-0.42578 1.0469-0.64062 1.7969-0.64062 0.25781 0 0.50391 0.03125 0.73438 0.09375 0.23828 0.054688 0.46094 0.13281 0.67188 0.23438v0.95312c-0.21875-0.15625-0.43359-0.26562-0.64062-0.32812-0.21094-0.070313-0.42969-0.10938-0.65625-0.10938-0.42969 0-0.76172 0.13672-1 0.40625-0.24219 0.27344-0.35938 0.64062-0.35938 1.1094s0.11719 0.83984 0.35938 1.1094c0.23828 0.26172 0.57031 0.39062 1 0.39062 0.22656 0 0.44531-0.03125 0.65625-0.09375 0.20703-0.070313 0.42188-0.17969 0.64062-0.32812z"
         id="path7309" /></symbol><symbol
       id="c-0"
       overflow="visible"><path
         d="m3.0625-2.4844c-0.10547-0.039063-0.20312-0.070313-0.29688-0.09375-0.09375-0.019531-0.1875-0.03125-0.28125-0.03125-0.28125 0-0.5 0.089844-0.65625 0.26562-0.14844 0.17969-0.21875 0.43359-0.21875 0.76562v1.5781h-1.0781v-3.4062h1.0781v0.5625c0.14453-0.22656 0.30469-0.39062 0.48438-0.48438 0.1875-0.10156 0.40625-0.15625 0.65625-0.15625h0.10938c0.050781 0 0.11328 0.007813 0.1875 0.015625z"
         id="path7312" /></symbol><symbol
       id="a-0"
       overflow="visible"><path
         d="m3.9219-1.7188v0.3125h-2.5469c0.03125 0.26172 0.125 0.45312 0.28125 0.57812s0.375 0.1875 0.65625 0.1875c0.22656 0 0.46094-0.03125 0.70312-0.09375 0.25-0.070313 0.5-0.17578 0.75-0.3125v0.84375c-0.26172 0.09375-0.52344 0.16797-0.78125 0.21875-0.25 0.050781-0.50781 0.078125-0.76562 0.078125-0.61719 0-1.0938-0.15625-1.4375-0.46875-0.34375-0.32031-0.51562-0.76562-0.51562-1.3281 0-0.55078 0.16406-0.98438 0.5-1.2969 0.34375-0.32031 0.80469-0.48438 1.3906-0.48438 0.53906 0 0.96875 0.16406 1.2812 0.48438 0.32031 0.3125 0.48438 0.74219 0.48438 1.2812zm-1.1094-0.35938c0-0.20703-0.0625-0.375-0.1875-0.5s-0.28125-0.1875-0.46875-0.1875c-0.21875 0-0.39844 0.0625-0.53125 0.1875-0.125 0.11719-0.20312 0.28125-0.23438 0.5z"
         id="path7315" /></symbol><symbol
       id="e-5"
       overflow="visible"><path
         d="m2.0469-1.5312c-0.23047 0-0.40234 0.042969-0.51562 0.125-0.11719 0.074219-0.17188 0.18359-0.17188 0.32812 0 0.13672 0.046875 0.24609 0.14062 0.32812 0.09375 0.074219 0.22266 0.10938 0.39062 0.10938 0.20703 0 0.37891-0.070313 0.51562-0.21875 0.14453-0.14453 0.21875-0.32812 0.21875-0.54688v-0.125zm1.6719-0.40625v1.9375h-1.0938v-0.5c-0.14844 0.21094-0.3125 0.35938-0.5 0.45312s-0.41406 0.14062-0.67188 0.14062c-0.35547 0-0.64062-0.10156-0.85938-0.3125-0.21875-0.20703-0.32812-0.47266-0.32812-0.79688 0-0.40625 0.13281-0.70312 0.40625-0.89062 0.28125-0.1875 0.71094-0.28125 1.2969-0.28125h0.65625v-0.078125c0-0.17578-0.074219-0.30078-0.21875-0.375-0.13672-0.082031-0.34375-0.125-0.625-0.125-0.24219 0-0.46094 0.027344-0.65625 0.078125-0.19922 0.042969-0.38672 0.10938-0.5625 0.20312v-0.82812c0.23828-0.0625 0.47266-0.10156 0.70312-0.125 0.23828-0.03125 0.47266-0.046875 0.70312-0.046875 0.61328 0 1.0547 0.12109 1.3281 0.35938 0.28125 0.24219 0.42188 0.63672 0.42188 1.1875z"
         id="path7318" /></symbol><symbol
       id="b-4"
       overflow="visible"><path
         d="m1.7188-4.375v0.96875h1.125v0.78125h-1.125v1.4375c0 0.15625 0.03125 0.26562 0.09375 0.32812 0.0625 0.054687 0.1875 0.078125 0.375 0.078125h0.5625v0.78125h-0.9375c-0.4375 0-0.74609-0.085938-0.92188-0.26562-0.17969-0.17578-0.26562-0.48438-0.26562-0.92188v-1.4375h-0.54688v-0.78125h0.54688v-0.96875z"
         id="path7321" /></symbol><symbol
       id="l-4"
       overflow="visible"><path
         d="m2.8438-2.9062v-1.8281h1.0938v4.7344h-1.0938v-0.5c-0.14844 0.21094-0.3125 0.35938-0.5 0.45312-0.17969 0.09375-0.38672 0.14062-0.625 0.14062-0.41797 0-0.76172-0.16406-1.0312-0.5-0.27344-0.33203-0.40625-0.76562-0.40625-1.2969 0-0.51953 0.13281-0.94531 0.40625-1.2812 0.26953-0.33203 0.61328-0.5 1.0312-0.5 0.23828 0 0.44531 0.046875 0.625 0.14062 0.1875 0.09375 0.35156 0.24219 0.5 0.4375zm-0.71875 2.2031c0.22656 0 0.40625-0.082031 0.53125-0.25 0.125-0.17578 0.1875-0.42578 0.1875-0.75 0-0.32031-0.0625-0.56641-0.1875-0.73438-0.125-0.17578-0.30469-0.26562-0.53125-0.26562-0.23047 0-0.40625 0.089844-0.53125 0.26562-0.125 0.16797-0.1875 0.41406-0.1875 0.73438 0 0.32422 0.0625 0.57422 0.1875 0.75 0.125 0.16797 0.30078 0.25 0.53125 0.25z"
         id="path7324" /></symbol><symbol
       id="k-4"
       overflow="visible"><path
         d="m2.3438-0.70312c0.22656 0 0.40625-0.082031 0.53125-0.25 0.125-0.17578 0.1875-0.42578 0.1875-0.75 0-0.32031-0.0625-0.56641-0.1875-0.73438-0.125-0.17578-0.30469-0.26562-0.53125-0.26562-0.24219 0-0.42188 0.089844-0.54688 0.26562-0.125 0.16797-0.1875 0.41406-0.1875 0.73438 0 0.32422 0.0625 0.57422 0.1875 0.75 0.125 0.16797 0.30469 0.25 0.54688 0.25zm-0.73438-2.2031c0.15625-0.19531 0.32031-0.34375 0.5-0.4375 0.1875-0.09375 0.39844-0.14062 0.64062-0.14062 0.41406 0 0.75781 0.16797 1.0312 0.5 0.26953 0.33594 0.40625 0.76172 0.40625 1.2812 0 0.53125-0.13672 0.96484-0.40625 1.2969-0.27344 0.33594-0.61719 0.5-1.0312 0.5-0.24219 0-0.45312-0.046875-0.64062-0.14062-0.17969-0.09375-0.34375-0.24219-0.5-0.45312v0.5h-1.0781v-4.7344h1.0781z"
         id="path7327" /></symbol><symbol
       id="j-4"
       overflow="visible"><path
         d="m0.078125-3.4062h1.0938l0.90625 2.3125 0.78125-2.3125h1.0938l-1.4375 3.7344c-0.14844 0.375-0.32031 0.63281-0.51562 0.78125-0.1875 0.15625-0.4375 0.23438-0.75 0.23438h-0.625v-0.71875h0.34375c0.17578 0 0.30469-0.03125 0.39062-0.09375 0.09375-0.054688 0.16016-0.15625 0.20312-0.3125l0.03125-0.09375z"
         id="path7330" /></symbol><symbol
       id="i-4"
       overflow="visible"><path
         d="m3.3281-0.82812h-1.8281l-0.29688 0.82812h-1.1719l1.6875-4.5469h1.3906l1.6875 4.5469h-1.1875zm-1.5312-0.84375h1.2344l-0.625-1.8125z"
         id="path7333" /></symbol><symbol
       id="h-5"
       overflow="visible"><path
         d="m3.9531-2.0781v2.0781h-1.0938v-1.5938c0-0.28906-0.011719-0.48828-0.03125-0.59375-0.011719-0.11328-0.03125-0.19531-0.0625-0.25-0.042969-0.070312-0.10156-0.12891-0.17188-0.17188-0.074219-0.039063-0.15625-0.0625-0.25-0.0625-0.23047 0-0.41406 0.089844-0.54688 0.26562-0.125 0.17969-0.1875 0.42188-0.1875 0.73438v1.6719h-1.0781v-3.4062h1.0781v0.5c0.16406-0.19531 0.33594-0.34375 0.51562-0.4375 0.1875-0.09375 0.39453-0.14062 0.625-0.14062 0.39453 0 0.69141 0.12109 0.89062 0.35938 0.20703 0.24219 0.3125 0.58984 0.3125 1.0469z"
         id="path7336" /></symbol><symbol
       id="t-8"
       overflow="visible"><path
         d="m3.1875-3.2969v0.82812c-0.23047-0.10156-0.45312-0.17578-0.67188-0.21875-0.21875-0.050781-0.42969-0.078125-0.625-0.078125-0.19922 0-0.35156 0.027344-0.45312 0.078125-0.10547 0.054688-0.15625 0.13281-0.15625 0.23438 0 0.09375 0.035156 0.16797 0.10938 0.21875 0.082031 0.042969 0.22266 0.074219 0.42188 0.09375l0.1875 0.015625c0.5625 0.074219 0.9375 0.19531 1.125 0.35938 0.19531 0.15625 0.29688 0.41406 0.29688 0.76562 0 0.36719-0.13672 0.64062-0.40625 0.82812-0.27344 0.17578-0.67188 0.26562-1.2031 0.26562-0.23047 0-0.46484-0.023438-0.70312-0.0625-0.24219-0.03125-0.48438-0.082031-0.73438-0.15625v-0.82812c0.21875 0.10547 0.44141 0.18359 0.67188 0.23438 0.22656 0.054688 0.45703 0.078125 0.6875 0.078125 0.21875 0 0.37891-0.023437 0.48438-0.078125 0.10156-0.0625 0.15625-0.14844 0.15625-0.26562 0-0.09375-0.039062-0.16406-0.10938-0.21875-0.074219-0.050781-0.21875-0.085937-0.4375-0.10938l-0.1875-0.03125c-0.49219-0.0625-0.83594-0.17188-1.0312-0.32812-0.1875-0.16406-0.28125-0.41406-0.28125-0.75 0-0.36328 0.11719-0.62891 0.35938-0.79688 0.25-0.17578 0.62891-0.26562 1.1406-0.26562 0.20703 0 0.42188 0.015625 0.64062 0.046875 0.21875 0.023438 0.45703 0.070312 0.71875 0.14062z"
         id="path7339" /></symbol><symbol
       id="g-5"
       overflow="visible"><path
         d="m3.2812-3.2969v0.89062c-0.14844-0.10156-0.29688-0.17969-0.45312-0.23438-0.14844-0.050781-0.29688-0.078125-0.45312-0.078125-0.3125 0-0.55469 0.09375-0.71875 0.28125-0.16797 0.17969-0.25 0.42188-0.25 0.73438 0 0.32422 0.082031 0.57422 0.25 0.75 0.16406 0.17969 0.40625 0.26562 0.71875 0.26562 0.16406 0 0.32031-0.023438 0.46875-0.078125 0.15625-0.050781 0.30078-0.12891 0.4375-0.23438v0.90625c-0.17969 0.0625-0.35547 0.10938-0.53125 0.14062-0.16797 0.03125-0.33984 0.046875-0.51562 0.046875-0.61719 0-1.1016-0.15625-1.4531-0.46875-0.34375-0.32031-0.51562-0.76562-0.51562-1.3281s0.17188-1 0.51562-1.3125c0.35156-0.3125 0.83594-0.46875 1.4531-0.46875 0.17578 0 0.34766 0.015625 0.51562 0.046875 0.17578 0.03125 0.35156 0.078125 0.53125 0.14062z"
         id="path7342" /></symbol><symbol
       id="s-5"
       overflow="visible"><path
         d="m0.53125-4.7344h1.0781v2.5781l1.2656-1.25h1.2656l-1.6719 1.5625 1.7969 1.8438h-1.3281l-1.3281-1.4219v1.4219h-1.0781z"
         id="path7345" /></symbol><symbol
       id="f-9"
       overflow="visible"><path
         d="m3.9531-2.0781v2.0781h-1.0938v-1.5781c0-0.30078-0.011719-0.50391-0.03125-0.60938-0.011719-0.11328-0.03125-0.19531-0.0625-0.25-0.042969-0.070312-0.10156-0.12891-0.17188-0.17188-0.074219-0.039063-0.15625-0.0625-0.25-0.0625-0.23047 0-0.41406 0.089844-0.54688 0.26562-0.125 0.17969-0.1875 0.42188-0.1875 0.73438v1.6719h-1.0781v-4.7344h1.0781v1.8281c0.16406-0.19531 0.33594-0.34375 0.51562-0.4375 0.1875-0.09375 0.39453-0.14062 0.625-0.14062 0.39453 0 0.69141 0.12109 0.89062 0.35938 0.20703 0.24219 0.3125 0.58984 0.3125 1.0469z"
         id="path7348" /></symbol><symbol
       id="r-2"
       overflow="visible"><path
         d="m2.7656-4.7344v0.71875h-0.59375c-0.15625 0-0.26562 0.027344-0.32812 0.078125-0.0625 0.054688-0.09375 0.15234-0.09375 0.29688v0.23438h0.9375v0.78125h-0.9375v2.625h-1.0938v-2.625h-0.53125v-0.78125h0.53125v-0.23438c0-0.375 0.10156-0.64844 0.3125-0.82812 0.20703-0.17578 0.53125-0.26562 0.96875-0.26562z"
         id="path7351" /></symbol><symbol
       id="d-4"
       overflow="visible"><path
         d="m2.1406-2.7188c-0.24219 0-0.42188 0.089844-0.54688 0.26562-0.125 0.17969-0.1875 0.42969-0.1875 0.75 0 0.32422 0.0625 0.57422 0.1875 0.75 0.125 0.17969 0.30469 0.26562 0.54688 0.26562 0.23828 0 0.42188-0.085938 0.54688-0.26562 0.125-0.17578 0.1875-0.42578 0.1875-0.75 0-0.32031-0.0625-0.57031-0.1875-0.75-0.125-0.17578-0.30859-0.26562-0.54688-0.26562zm0-0.76562c0.59375 0 1.0508 0.15625 1.375 0.46875 0.33203 0.3125 0.5 0.75 0.5 1.3125s-0.16797 1.0078-0.5 1.3281c-0.32422 0.3125-0.78125 0.46875-1.375 0.46875-0.58594 0-1.043-0.15625-1.375-0.46875-0.33594-0.32031-0.5-0.76562-0.5-1.3281s0.16406-1 0.5-1.3125c0.33203-0.3125 0.78906-0.46875 1.375-0.46875z"
         id="path7354" /></symbol><symbol
       id="q-1"
       overflow="visible"><path
         d="m3.6875-2.8438c0.13281-0.20703 0.29688-0.36328 0.48438-0.46875 0.1875-0.11328 0.39453-0.17188 0.625-0.17188 0.39453 0 0.69141 0.12109 0.89062 0.35938 0.20703 0.24219 0.3125 0.58984 0.3125 1.0469v2.0781h-1.0938v-1.7812-0.078125-0.125c0-0.23828-0.039062-0.41016-0.10938-0.51562-0.0625-0.11328-0.17188-0.17188-0.32812-0.17188-0.21094 0-0.37109 0.089844-0.48438 0.26562-0.11719 0.16797-0.17188 0.41406-0.17188 0.73438v1.6719h-1.0938v-1.7812c0-0.375-0.039062-0.61328-0.10938-0.71875-0.0625-0.11328-0.17969-0.17188-0.34375-0.17188-0.21094 0-0.37109 0.089844-0.48438 0.26562-0.11719 0.16797-0.17188 0.41406-0.17188 0.73438v1.6719h-1.0938v-3.4062h1.0938v0.5c0.13281-0.19531 0.28516-0.34375 0.45312-0.4375 0.17578-0.09375 0.36719-0.14062 0.57812-0.14062 0.23828 0 0.44531 0.058594 0.625 0.17188 0.1875 0.10547 0.32812 0.26172 0.42188 0.46875z"
         id="path7357" /></symbol><symbol
       id="p-7"
       overflow="visible"><path
         d="m0.57812-4.5469h1.2969l1.6562 3.125v-3.125h1.1094v4.5469h-1.2969l-1.6562-3.125v3.125h-1.1094z"
         id="path7360" /></symbol><symbol
       id="o-7"
       overflow="visible"><path
         d="m0.48438-1.3281v-2.0781h1.0938v0.34375 0.6875 0.5625c0 0.27344 0.003906 0.46875 0.015625 0.59375 0.019531 0.11719 0.046875 0.20312 0.078125 0.26562 0.039063 0.0625 0.097656 0.11719 0.17188 0.15625 0.070312 0.042969 0.15625 0.0625 0.25 0.0625 0.22656 0 0.40625-0.085937 0.53125-0.26562 0.13281-0.17578 0.20312-0.41406 0.20312-0.71875v-1.6875h1.0938v3.4062h-1.0938v-0.5c-0.16797 0.21094-0.34375 0.35938-0.53125 0.45312-0.17969 0.09375-0.375 0.14062-0.59375 0.14062-0.39844 0-0.69922-0.11719-0.90625-0.35938-0.21094-0.25-0.3125-0.60156-0.3125-1.0625z"
         id="path7363" /></symbol><symbol
       id="n-8"
       overflow="visible"><path
         d="m0.57812-4.5469h1.9375c0.58203 0 1.0234 0.13281 1.3281 0.39062 0.3125 0.25 0.46875 0.61719 0.46875 1.0938 0 0.48047-0.15625 0.85156-0.46875 1.1094-0.30469 0.25-0.74609 0.375-1.3281 0.375h-0.76562v1.5781h-1.1719zm1.1719 0.84375v1.2812h0.64062c0.22656 0 0.40625-0.054687 0.53125-0.17188 0.125-0.11328 0.1875-0.26953 0.1875-0.46875 0-0.19531-0.0625-0.35156-0.1875-0.46875-0.125-0.11328-0.30469-0.17188-0.53125-0.17188z"
         id="path7366" /></symbol><symbol
       id="m-6"
       overflow="visible"><path
         d="m0.53125-3.4062h1.0781v3.3438c0 0.45703-0.10938 0.80469-0.32812 1.0469-0.21875 0.23828-0.53906 0.35938-0.95312 0.35938h-0.53125v-0.71875h0.1875c0.20703 0 0.34766-0.046875 0.42188-0.14062 0.082031-0.09375 0.125-0.27734 0.125-0.54688zm0-1.3281h1.0781v0.89062h-1.0781z"
         id="path7369" /></symbol><symbol
       id="u-2"
       overflow="visible"><path
         d="m18.766-1.125c-0.96875 0.5-1.9805 0.875-3.0312 1.125-1.043 0.25781-2.1367 0.39062-3.2812 0.39062-3.3984 0-6.0898-0.94531-8.0781-2.8438-1.9922-1.9062-2.9844-4.4844-2.9844-7.7344 0-3.2578 0.99219-5.8359 2.9844-7.7344 1.9883-1.9062 4.6797-2.8594 8.0781-2.8594 1.1445 0 2.2383 0.13281 3.2812 0.39062 1.0508 0.25 2.0625 0.625 3.0312 1.125v4.2188c-0.98047-0.65625-1.9453-1.1406-2.8906-1.4531-0.94922-0.3125-1.9492-0.46875-3-0.46875-1.875 0-3.3516 0.60547-4.4219 1.8125-1.0742 1.1992-1.6094 2.8555-1.6094 4.9688 0 2.1055 0.53516 3.7617 1.6094 4.9688 1.0703 1.1992 2.5469 1.7969 4.4219 1.7969 1.0508 0 2.0508-0.14844 3-0.45312 0.94531-0.3125 1.9102-0.80078 2.8906-1.4688z"
         id="path7902" /></symbol><symbol
       id="c-5"
       overflow="visible"><path
         d="m13.734-11.141c-0.4375-0.19531-0.87109-0.34375-1.2969-0.4375-0.41797-0.10156-0.83984-0.15625-1.2656-0.15625-1.2617 0-2.2305 0.40625-2.9062 1.2188-0.67969 0.80469-1.0156 1.9531-1.0156 3.4531v7.0625h-4.8906v-15.312h4.8906v2.5156c0.625-1 1.3438-1.7266 2.1562-2.1875 0.82031-0.46875 1.8008-0.70312 2.9375-0.70312 0.16406 0 0.34375 0.011719 0.53125 0.03125 0.19531 0.011719 0.47656 0.039062 0.84375 0.078125z"
         id="path7905" /></symbol><symbol
       id="a-4"
       overflow="visible"><path
         d="m17.641-7.7031v1.4062h-11.453c0.125 1.1484 0.53906 2.0078 1.25 2.5781 0.70703 0.57422 1.7031 0.85938 2.9844 0.85938 1.0312 0 2.082-0.14844 3.1562-0.45312 1.082-0.3125 2.1914-0.77344 3.3281-1.3906v3.7656c-1.1562 0.4375-2.3125 0.76562-3.4688 0.98438-1.1562 0.22656-2.3125 0.34375-3.4688 0.34375-2.7734 0-4.9297-0.70312-6.4688-2.1094-1.5312-1.4062-2.2969-3.3789-2.2969-5.9219 0-2.5 0.75391-4.4609 2.2656-5.8906 1.5078-1.4375 3.582-2.1562 6.2188-2.1562 2.4062 0 4.332 0.73047 5.7812 2.1875 1.4453 1.4492 2.1719 3.3828 2.1719 5.7969zm-5.0312-1.625c0-0.92578-0.27344-1.6719-0.8125-2.2344-0.54297-0.57031-1.25-0.85938-2.125-0.85938-0.94922 0-1.7188 0.26562-2.3125 0.79688s-0.96484 1.2969-1.1094 2.2969z"
         id="path7908" /></symbol><symbol
       id="g-4"
       overflow="visible"><path
         d="m9.2188-6.8906c-1.0234 0-1.793 0.17188-2.3125 0.51562-0.51172 0.34375-0.76562 0.85547-0.76562 1.5312 0 0.625 0.20703 1.1172 0.625 1.4688 0.41406 0.34375 0.98828 0.51562 1.7188 0.51562 0.92578 0 1.7031-0.32812 2.3281-0.98438 0.63281-0.66406 0.95312-1.4922 0.95312-2.4844v-0.5625zm7.4688-1.8438v8.7344h-4.9219v-2.2656c-0.65625 0.92969-1.3984 1.6055-2.2188 2.0312-0.82422 0.41406-1.8242 0.625-3 0.625-1.5859 0-2.8711-0.45703-3.8594-1.375-0.99219-0.92578-1.4844-2.1289-1.4844-3.6094 0-1.7891 0.61328-3.1016 1.8438-3.9375 1.2383-0.84375 3.1797-1.2656 5.8281-1.2656h2.8906v-0.39062c0-0.76953-0.30859-1.332-0.92188-1.6875-0.61719-0.36328-1.5703-0.54688-2.8594-0.54688-1.0547 0-2.0312 0.10547-2.9375 0.3125-0.89844 0.21094-1.7305 0.52344-2.5 0.9375v-3.7344c1.0391-0.25 2.0859-0.44141 3.1406-0.57812 1.0625-0.13281 2.125-0.20312 3.1875-0.20312 2.7578 0 4.75 0.54688 5.9688 1.6406 1.2266 1.0859 1.8438 2.8555 1.8438 5.3125z"
         id="path7911" /></symbol><symbol
       id="b-2"
       overflow="visible"><path
         d="m7.7031-19.656v4.3438h5.0469v3.5h-5.0469v6.5c0 0.71094 0.14062 1.1875 0.42188 1.4375s0.83594 0.375 1.6719 0.375h2.5156v3.5h-4.1875c-1.9375 0-3.3125-0.39844-4.125-1.2031-0.80469-0.8125-1.2031-2.1797-1.2031-4.1094v-6.5h-2.4219v-3.5h2.4219v-4.3438z"
         id="path7914" /></symbol><symbol
       id="i-5"
       overflow="visible"><path
         d="m12.766-13.078v-8.2031h4.9219v21.281h-4.9219v-2.2188c-0.66797 0.90625-1.4062 1.5703-2.2188 1.9844s-1.7578 0.625-2.8281 0.625c-1.8867 0-3.4336-0.75-4.6406-2.25-1.2109-1.5-1.8125-3.4258-1.8125-5.7812 0-2.3633 0.60156-4.2969 1.8125-5.7969 1.207-1.5 2.7539-2.25 4.6406-2.25 1.0625 0 2 0.21484 2.8125 0.64062 0.82031 0.42969 1.5664 1.0859 2.2344 1.9688zm-3.2188 9.9219c1.0391 0 1.8359-0.37891 2.3906-1.1406 0.55078-0.76953 0.82812-1.8828 0.82812-3.3438 0-1.457-0.27734-2.5664-0.82812-3.3281-0.55469-0.76953-1.3516-1.1562-2.3906-1.1562-1.043 0-1.8398 0.38672-2.3906 1.1562-0.55469 0.76172-0.82812 1.8711-0.82812 3.3281 0 1.4609 0.27344 2.5742 0.82812 3.3438 0.55078 0.76172 1.3477 1.1406 2.3906 1.1406z"
         id="path7917" /></symbol><symbol
       id="h-3"
       overflow="visible"><path
         d="m10.5-3.1562c1.0508 0 1.8516-0.37891 2.4062-1.1406 0.55078-0.76953 0.82812-1.8828 0.82812-3.3438 0-1.457-0.27734-2.5664-0.82812-3.3281-0.55469-0.76953-1.3555-1.1562-2.4062-1.1562-1.0547 0-1.8594 0.38672-2.4219 1.1562-0.55469 0.77344-0.82812 1.8828-0.82812 3.3281 0 1.4492 0.27344 2.5586 0.82812 3.3281 0.5625 0.77344 1.3672 1.1562 2.4219 1.1562zm-3.25-9.9219c0.67578-0.88281 1.4219-1.5391 2.2344-1.9688 0.82031-0.42578 1.7656-0.64062 2.8281-0.64062 1.8945 0 3.4453 0.75 4.6562 2.25 1.207 1.5 1.8125 3.4336 1.8125 5.7969 0 2.3555-0.60547 4.2812-1.8125 5.7812-1.2109 1.5-2.7617 2.25-4.6562 2.25-1.0625 0-2.0078-0.21094-2.8281-0.625-0.8125-0.42578-1.5586-1.0859-2.2344-1.9844v2.2188h-4.8906v-21.281h4.8906z"
         id="path7920" /></symbol><symbol
       id="f-96"
       overflow="visible"><path
         d="m0.34375-15.312h4.8906l4.125 10.391 3.5-10.391h4.8906l-6.4375 16.766c-0.64844 1.6953-1.4023 2.8828-2.2656 3.5625-0.86719 0.6875-2 1.0312-3.4062 1.0312h-2.8438v-3.2188h1.5312c0.83203 0 1.4375-0.13672 1.8125-0.40625 0.38281-0.26172 0.67969-0.73047 0.89062-1.4062l0.14062-0.42188z"
         id="path7923" /></symbol><symbol
       id="e-9"
       overflow="visible"><path
         d="m2.5781-20.406h14.203v3.9688h-8.9531v3.7969h8.4219v3.9844h-8.4219v4.6719h9.25v3.9844h-14.5z"
         id="path7926" /></symbol><symbol
       id="t-6"
       overflow="visible"><path
         d="m12.766-2.5938c-0.66797 0.88672-1.4062 1.543-2.2188 1.9688-0.8125 0.41797-1.7578 0.625-2.8281 0.625-1.8672 0-3.4062-0.73438-4.625-2.2031-1.2188-1.4766-1.8281-3.3516-1.8281-5.625 0-2.2891 0.60938-4.1641 1.8281-5.625 1.2188-1.4688 2.7578-2.2031 4.625-2.2031 1.0703 0 2.0156 0.21484 2.8281 0.64062 0.8125 0.41797 1.5508 1.0742 2.2188 1.9688v-2.2656h4.9219v13.766c0 2.457-0.77734 4.3359-2.3281 5.6406-1.5547 1.3008-3.8086 1.9531-6.7656 1.9531-0.94922 0-1.8711-0.074219-2.7656-0.21875-0.89844-0.14844-1.7969-0.37109-2.7031-0.67188v-3.8125c0.86328 0.48828 1.7031 0.85156 2.5156 1.0938 0.82031 0.23828 1.6484 0.35938 2.4844 0.35938 1.6016 0 2.7734-0.35156 3.5156-1.0469 0.75-0.69922 1.125-1.7969 1.125-3.2969zm-3.2188-9.5312c-1.0117 0-1.8047 0.375-2.375 1.125-0.5625 0.74219-0.84375 1.7969-0.84375 3.1719 0 1.3984 0.26953 2.4609 0.8125 3.1875 0.55078 0.71875 1.3516 1.0781 2.4062 1.0781 1.0195 0 1.8125-0.36719 2.375-1.1094 0.5625-0.75 0.84375-1.8008 0.84375-3.1562 0-1.375-0.28125-2.4297-0.84375-3.1719-0.5625-0.75-1.3555-1.125-2.375-1.125z"
         id="path7929" /></symbol><symbol
       id="s-7"
       overflow="visible"><path
         d="m2.3594-21.281h4.8906v21.281h-4.8906z"
         id="path7932" /></symbol><symbol
       id="r-8"
       overflow="visible"><path
         d="m12.422-21.281v3.2188h-2.7031c-0.6875 0-1.1719 0.125-1.4531 0.375-0.27344 0.25-0.40625 0.6875-0.40625 1.3125v1.0625h4.1875v3.5h-4.1875v11.812h-4.8906v-11.812h-2.4375v-3.5h2.4375v-1.0625c0-1.6641 0.46094-2.8984 1.3906-3.7031 0.92578-0.80078 2.3672-1.2031 4.3281-1.2031z"
         id="path7935" /></symbol><symbol
       id="d-2"
       overflow="visible"><path
         d="m9.6406-12.188c-1.0859 0-1.9141 0.39062-2.4844 1.1719-0.57422 0.78125-0.85938 1.9062-0.85938 3.375s0.28516 2.5938 0.85938 3.375c0.57031 0.77344 1.3984 1.1562 2.4844 1.1562 1.0625 0 1.875-0.38281 2.4375-1.1562 0.57031-0.78125 0.85938-1.9062 0.85938-3.375s-0.28906-2.5938-0.85938-3.375c-0.5625-0.78125-1.375-1.1719-2.4375-1.1719zm0-3.5c2.6328 0 4.6914 0.71484 6.1719 2.1406 1.4766 1.418 2.2188 3.3867 2.2188 5.9062 0 2.5117-0.74219 4.4805-2.2188 5.9062-1.4805 1.418-3.5391 2.125-6.1719 2.125-2.6484 0-4.7148-0.70703-6.2031-2.125-1.4922-1.4258-2.2344-3.3945-2.2344-5.9062 0-2.5195 0.74219-4.4883 2.2344-5.9062 1.4883-1.4258 3.5547-2.1406 6.2031-2.1406z"
         id="path7938" /></symbol><symbol
       id="q-2"
       overflow="visible"><path
         d="m16.547-12.766c0.61328-0.94531 1.3477-1.6719 2.2031-2.1719 0.85156-0.5 1.7891-0.75 2.8125-0.75 1.7578 0 3.0977 0.54688 4.0156 1.6406 0.92578 1.0859 1.3906 2.6562 1.3906 4.7188v9.3281h-4.9219v-7.9844-0.35938c0.007813-0.13281 0.015625-0.32031 0.015625-0.5625 0-1.082-0.16406-1.8633-0.48438-2.3438-0.3125-0.48828-0.82422-0.73438-1.5312-0.73438-0.92969 0-1.6484 0.38672-2.1562 1.1562-0.51172 0.76172-0.77344 1.8672-0.78125 3.3125v7.5156h-4.9219v-7.9844c0-1.6953-0.14844-2.7852-0.4375-3.2656-0.29297-0.48828-0.8125-0.73438-1.5625-0.73438-0.9375 0-1.6641 0.38672-2.1719 1.1562-0.51172 0.76172-0.76562 1.8594-0.76562 3.2969v7.5312h-4.9219v-15.312h4.9219v2.2344c0.60156-0.86328 1.2891-1.5156 2.0625-1.9531 0.78125-0.4375 1.6406-0.65625 2.5781-0.65625 1.0625 0 2 0.25781 2.8125 0.76562 0.8125 0.51172 1.4258 1.2305 1.8438 2.1562z"
         id="path7941" /></symbol><symbol
       id="p-9"
       overflow="visible"><path
         d="m17.75-9.3281v9.3281h-4.9219v-7.1094c0-1.3438-0.03125-2.2656-0.09375-2.7656s-0.16797-0.86719-0.3125-1.1094c-0.1875-0.3125-0.44922-0.55469-0.78125-0.73438-0.32422-0.17578-0.69531-0.26562-1.1094-0.26562-1.0234 0-1.8242 0.39844-2.4062 1.1875-0.58594 0.78125-0.875 1.8711-0.875 3.2656v7.5312h-4.8906v-21.281h4.8906v8.2031c0.73828-0.88281 1.5195-1.5391 2.3438-1.9688 0.83203-0.42578 1.75-0.64062 2.75-0.64062 1.7695 0 3.1133 0.54688 4.0312 1.6406 0.91406 1.0859 1.375 2.6562 1.375 4.7188z"
         id="path7944" /></symbol><symbol
       id="o-77"
       overflow="visible"><path
         d="m2.5781-20.406h5.875l7.4219 14v-14h4.9844v20.406h-5.875l-7.4219-14v14h-4.9844z"
         id="path7947" /></symbol><symbol
       id="n-1"
       overflow="visible"><path
         d="m2.1875-5.9688v-9.3438h4.9219v1.5312c0 0.83594-0.007813 1.875-0.015625 3.125-0.011719 1.25-0.015625 2.0859-0.015625 2.5 0 1.2422 0.03125 2.1328 0.09375 2.6719 0.070313 0.54297 0.17969 0.93359 0.32812 1.1719 0.20703 0.32422 0.47266 0.57422 0.79688 0.75 0.32031 0.16797 0.69141 0.25 1.1094 0.25 1.0195 0 1.8203-0.39062 2.4062-1.1719 0.58203-0.78125 0.875-1.8672 0.875-3.2656v-7.5625h4.8906v15.312h-4.8906v-2.2188c-0.74219 0.89844-1.5234 1.5586-2.3438 1.9844-0.82422 0.41406-1.7344 0.625-2.7344 0.625-1.7617 0-3.1055-0.53906-4.0312-1.625-0.92969-1.082-1.3906-2.6602-1.3906-4.7344z"
         id="path7950" /></symbol><symbol
       id="m-3"
       overflow="visible"><path
         d="m17.75-9.3281v9.3281h-4.9219v-7.1406c0-1.3203-0.03125-2.2344-0.09375-2.7344s-0.16797-0.86719-0.3125-1.1094c-0.1875-0.3125-0.44922-0.55469-0.78125-0.73438-0.32422-0.17578-0.69531-0.26562-1.1094-0.26562-1.0234 0-1.8242 0.39844-2.4062 1.1875-0.58594 0.78125-0.875 1.8711-0.875 3.2656v7.5312h-4.8906v-15.312h4.8906v2.2344c0.73828-0.88281 1.5195-1.5391 2.3438-1.9688 0.83203-0.42578 1.75-0.64062 2.75-0.64062 1.7695 0 3.1133 0.54688 4.0312 1.6406 0.91406 1.0859 1.375 2.6562 1.375 4.7188z"
         id="path7953" /></symbol><symbol
       id="l-8"
       overflow="visible"><path
         d="m2.5781-20.406h8.7344c2.5938 0 4.582 0.57812 5.9688 1.7344 1.3945 1.1484 2.0938 2.7891 2.0938 4.9219 0 2.1367-0.69922 3.7812-2.0938 4.9375-1.3867 1.1562-3.375 1.7344-5.9688 1.7344h-3.4844v7.0781h-5.25zm5.25 3.8125v5.7031h2.9219c1.0195 0 1.8047-0.25 2.3594-0.75 0.5625-0.5 0.84375-1.2031 0.84375-2.1094 0-0.91406-0.28125-1.6172-0.84375-2.1094-0.55469-0.48828-1.3398-0.73438-2.3594-0.73438z"
         id="path7956" /></symbol><symbol
       id="k-6"
       overflow="visible"><path
         d="m2.3594-15.312h4.8906v15.031c0 2.0508-0.49609 3.6172-1.4844 4.7031-0.98047 1.082-2.4062 1.625-4.2812 1.625h-2.4219v-3.2188h0.85938c0.92578 0 1.5625-0.21094 1.9062-0.625 0.35156-0.41797 0.53125-1.2461 0.53125-2.4844zm0-5.9688h4.8906v4h-4.8906z"
         id="path7959" /></symbol><symbol
       id="j-0"
       overflow="visible"><path
         d="m14.719-14.828v3.9844c-0.65625-0.45703-1.3242-0.79688-2-1.0156-0.66797-0.21875-1.3594-0.32812-2.0781-0.32812-1.3672 0-2.4336 0.40234-3.2031 1.2031-0.76172 0.79297-1.1406 1.9062-1.1406 3.3438 0 1.4297 0.37891 2.543 1.1406 3.3438 0.76953 0.79297 1.8359 1.1875 3.2031 1.1875 0.75781 0 1.4844-0.10938 2.1719-0.32812 0.6875-0.22656 1.3203-0.56641 1.9062-1.0156v4c-0.76172 0.28125-1.5391 0.48828-2.3281 0.625-0.78125 0.14453-1.5742 0.21875-2.375 0.21875-2.7617 0-4.9219-0.70703-6.4844-2.125-1.5547-1.4141-2.3281-3.3828-2.3281-5.9062 0-2.5312 0.77344-4.5039 2.3281-5.9219 1.5625-1.4141 3.7227-2.125 6.4844-2.125 0.80078 0 1.5938 0.074219 2.375 0.21875 0.78125 0.13672 1.5547 0.35156 2.3281 0.64062z"
         id="path7962" /></symbol><symbol
       id="v-7"
       overflow="visible"><path
         d="m2.375-0.14062c-0.125 0.0625-0.25781 0.10938-0.39062 0.14062-0.125 0.03125-0.26172 0.046875-0.40625 0.046875-0.42969 0-0.77344-0.11719-1.0312-0.35938-0.25-0.23828-0.375-0.56641-0.375-0.98438 0-0.40625 0.125-0.72656 0.375-0.96875 0.25781-0.23828 0.60156-0.35938 1.0312-0.35938 0.14453 0 0.28125 0.015625 0.40625 0.046875 0.13281 0.03125 0.26562 0.078125 0.39062 0.14062v0.53125c-0.125-0.082031-0.25-0.14453-0.375-0.1875-0.11719-0.039062-0.24219-0.0625-0.375-0.0625-0.23047 0-0.41797 0.078125-0.5625 0.23438-0.13672 0.15625-0.20312 0.36719-0.20312 0.625 0 0.27344 0.066406 0.48438 0.20312 0.64062 0.14453 0.14844 0.33203 0.21875 0.5625 0.21875 0.13281 0 0.25781-0.015625 0.375-0.046875 0.125-0.039063 0.25-0.10156 0.375-0.1875z"
         id="path8204" /></symbol><symbol
       id="d-7"
       overflow="visible"><path
         d="m1.7344-1.4062c-0.054687-0.03125-0.10547-0.050781-0.15625-0.0625-0.054687-0.007812-0.10547-0.015625-0.15625-0.015625-0.16797 0-0.29297 0.054687-0.375 0.15625-0.085937 0.10547-0.125 0.25-0.125 0.4375v0.89062h-0.625v-1.9375h0.625v0.3125c0.070313-0.125 0.16016-0.21094 0.26562-0.26562 0.10156-0.0625 0.22656-0.09375 0.375-0.09375h0.0625c0.03125 0 0.066406 0.007813 0.10938 0.015625z"
         id="path8207" /></symbol><symbol
       id="c-01"
       overflow="visible"><path
         d="m2.2344-0.96875v0.17188h-1.4531c0.019531 0.14844 0.070312 0.25781 0.15625 0.32812 0.09375 0.074219 0.21875 0.10938 0.375 0.10938 0.13281 0 0.26953-0.019531 0.40625-0.0625 0.13281-0.039063 0.27344-0.097656 0.42188-0.17188v0.46875c-0.14844 0.0625-0.29297 0.10547-0.4375 0.125-0.14844 0.03125-0.29297 0.046875-0.4375 0.046875-0.35547 0-0.63281-0.085938-0.82812-0.26562-0.1875-0.17578-0.28125-0.42578-0.28125-0.75 0-0.3125 0.09375-0.55469 0.28125-0.73438 0.1875-0.1875 0.45312-0.28125 0.79688-0.28125 0.30078 0 0.53906 0.09375 0.71875 0.28125 0.1875 0.17969 0.28125 0.42188 0.28125 0.73438zm-0.64062-0.21875c0-0.11328-0.039062-0.20703-0.10938-0.28125-0.0625-0.070312-0.15234-0.10938-0.26562-0.10938-0.11719 0-0.21484 0.039063-0.29688 0.10938-0.074219 0.0625-0.11719 0.15625-0.125 0.28125z"
         id="path8210" /></symbol><symbol
       id="b-27"
       overflow="visible"><path
         d="m1.1719-0.875c-0.13672 0-0.23438 0.027344-0.29688 0.078125-0.0625 0.042969-0.09375 0.10547-0.09375 0.1875 0 0.074219 0.023438 0.13672 0.078125 0.1875 0.050781 0.042969 0.125 0.0625 0.21875 0.0625 0.11328 0 0.20703-0.039063 0.28125-0.125 0.082031-0.082031 0.125-0.1875 0.125-0.3125v-0.078125zm0.9375-0.23438v1.1094h-0.625v-0.28125c-0.085937 0.11719-0.17969 0.19922-0.28125 0.25-0.10547 0.050781-0.23047 0.078125-0.375 0.078125-0.19922 0-0.35938-0.054688-0.48438-0.17188-0.125-0.11328-0.1875-0.26562-0.1875-0.45312 0-0.22656 0.078125-0.39453 0.23438-0.5 0.15625-0.10156 0.39844-0.15625 0.73438-0.15625h0.35938v-0.0625c0-0.09375-0.042969-0.16016-0.125-0.20312-0.074219-0.050781-0.1875-0.078125-0.34375-0.078125-0.13672 0-0.26172 0.015625-0.375 0.046875-0.11719 0.023438-0.21875 0.058594-0.3125 0.10938v-0.46875c0.125-0.03125 0.25391-0.050781 0.39062-0.0625 0.13281-0.019531 0.26953-0.03125 0.40625-0.03125 0.35156 0 0.60156 0.070313 0.75 0.20312 0.15625 0.13672 0.23438 0.35938 0.23438 0.67188z"
         id="path8213" /></symbol><symbol
       id="a-1"
       overflow="visible"><path
         d="m0.96875-2.4844v0.54688h0.64062v0.4375h-0.64062v0.82812c0 0.09375 0.015625 0.15625 0.046875 0.1875 0.039063 0.03125 0.11328 0.046875 0.21875 0.046875h0.32812v0.4375h-0.53125c-0.25 0-0.42969-0.050781-0.53125-0.15625-0.09375-0.10156-0.14062-0.27344-0.14062-0.51562v-0.82812h-0.3125v-0.4375h0.3125v-0.54688z"
         id="path8216" /></symbol><symbol
       id="l-7"
       overflow="visible"><path
         d="m1.625-1.6562v-1.0312h0.60938v2.6875h-0.60938v-0.28125c-0.09375 0.11719-0.19531 0.19922-0.29688 0.25-0.09375 0.050781-0.21094 0.078125-0.34375 0.078125-0.24219 0-0.4375-0.09375-0.59375-0.28125s-0.23438-0.42969-0.23438-0.73438c0-0.30078 0.078125-0.54688 0.23438-0.73438s0.35156-0.28125 0.59375-0.28125c0.125 0 0.23828 0.027344 0.34375 0.078125 0.10156 0.054688 0.20312 0.13672 0.29688 0.25zm-0.42188 1.25c0.13281 0 0.23828-0.046875 0.3125-0.14062 0.070313-0.09375 0.10938-0.23438 0.10938-0.42188s-0.039062-0.32812-0.10938-0.42188c-0.074219-0.09375-0.17969-0.14062-0.3125-0.14062-0.125 0-0.22656 0.046875-0.29688 0.14062-0.074219 0.09375-0.10938 0.23438-0.10938 0.42188s0.035156 0.32812 0.10938 0.42188c0.070312 0.09375 0.17188 0.14062 0.29688 0.14062z"
         id="path8219" /></symbol><symbol
       id="g-9"
       overflow="visible"><path
         d="m1.3281-0.40625c0.13281 0 0.23438-0.046875 0.29688-0.14062 0.070312-0.09375 0.10938-0.23438 0.10938-0.42188s-0.039063-0.32812-0.10938-0.42188c-0.0625-0.09375-0.16406-0.14062-0.29688-0.14062-0.13672 0-0.24219 0.046875-0.3125 0.14062-0.0625 0.09375-0.09375 0.23438-0.09375 0.42188s0.03125 0.32812 0.09375 0.42188c0.070313 0.09375 0.17578 0.14062 0.3125 0.14062zm-0.40625-1.25c0.082031-0.11328 0.17578-0.19531 0.28125-0.25 0.10156-0.050781 0.22266-0.078125 0.35938-0.078125 0.23828 0 0.42969 0.09375 0.57812 0.28125 0.15625 0.1875 0.23438 0.43359 0.23438 0.73438 0 0.30469-0.078125 0.54688-0.23438 0.73438-0.14844 0.1875-0.33984 0.28125-0.57812 0.28125-0.13672 0-0.25781-0.027344-0.35938-0.078125-0.10547-0.050781-0.19922-0.13281-0.28125-0.25v0.28125h-0.625v-2.6875h0.625z"
         id="path8222" /></symbol><symbol
       id="f-91"
       overflow="visible"><path
         d="m0.046875-1.9375h0.60938l0.53125 1.3125 0.4375-1.3125h0.625l-0.8125 2.125c-0.085938 0.20703-0.18359 0.35156-0.29688 0.4375-0.10547 0.09375-0.24609 0.14062-0.42188 0.14062h-0.35938v-0.40625h0.1875c0.10156 0 0.17578-0.015625 0.21875-0.046875 0.050781-0.03125 0.09375-0.09375 0.125-0.1875l0.015625-0.046875z"
         id="path8225" /></symbol><symbol
       id="k-5"
       overflow="visible"><path
         d="m2.6562-0.1875c-0.16797 0.074219-0.34375 0.13281-0.53125 0.17188-0.17969 0.039062-0.35938 0.0625-0.54688 0.0625-0.42969 0-0.77344-0.11719-1.0312-0.35938-0.25-0.23828-0.375-0.56641-0.375-0.98438 0-0.41406 0.12891-0.73828 0.39062-0.96875 0.25781-0.23828 0.60938-0.35938 1.0469-0.35938 0.17578 0 0.34375 0.015625 0.5 0.046875s0.30078 0.078125 0.4375 0.14062v0.53125c-0.13672-0.082031-0.27734-0.14453-0.42188-0.1875-0.14844-0.039062-0.28906-0.0625-0.42188-0.0625-0.27344 0-0.48047 0.078125-0.625 0.23438-0.14844 0.14844-0.21875 0.35547-0.21875 0.625 0 0.28125 0.066406 0.49609 0.20312 0.64062 0.14453 0.14844 0.34766 0.21875 0.60938 0.21875h0.1875c0.0625-0.007812 0.11328-0.023438 0.15625-0.046875v-0.5h-0.40625v-0.45312h1.0469z"
         id="path8228" /></symbol><symbol
       id="j-1"
       overflow="visible"><path
         d="m2.25-1.1875v1.1875h-0.625v-0.90625c0-0.16406-0.007812-0.28125-0.015625-0.34375 0-0.0625-0.011719-0.10938-0.03125-0.14062-0.03125-0.039063-0.070313-0.070313-0.10938-0.09375-0.042969-0.019531-0.089844-0.03125-0.14062-0.03125-0.125 0-0.22656 0.054687-0.29688 0.15625-0.074219 0.09375-0.10938 0.23047-0.10938 0.40625v0.95312h-0.625v-2.6875h0.625v1.0312c0.09375-0.11328 0.19141-0.19531 0.29688-0.25 0.10156-0.050781 0.21875-0.078125 0.34375-0.078125 0.22656 0 0.39844 0.070313 0.51562 0.20312 0.11328 0.13672 0.17188 0.33594 0.17188 0.59375z"
         id="path8231" /></symbol><symbol
       id="u-9"
       overflow="visible"><path
         d="m0.29688-1.9375h0.625v1.9375h-0.625zm0-0.75h0.625v0.5h-0.625z"
         id="path8234" /></symbol><symbol
       id="t-82"
       overflow="visible"><path
         d="m1.8125-1.875v0.46875c-0.13672-0.050781-0.26562-0.09375-0.39062-0.125-0.11719-0.03125-0.23047-0.046875-0.34375-0.046875-0.11719 0-0.20312 0.015625-0.26562 0.046875-0.054688 0.03125-0.078125 0.078125-0.078125 0.14062 0 0.054687 0.019531 0.09375 0.0625 0.125 0.039063 0.023437 0.11719 0.039063 0.23438 0.046875l0.10938 0.015625c0.3125 0.042969 0.51953 0.10938 0.625 0.20312 0.11328 0.085938 0.17188 0.22656 0.17188 0.42188 0 0.21094-0.078125 0.36719-0.23438 0.46875-0.14844 0.10547-0.37109 0.15625-0.67188 0.15625-0.125 0-0.26172-0.011719-0.40625-0.03125-0.13672-0.019531-0.27344-0.050781-0.40625-0.09375v-0.46875c0.11328 0.0625 0.23438 0.10938 0.35938 0.14062 0.13281 0.03125 0.26953 0.046875 0.40625 0.046875 0.125 0 0.21875-0.015625 0.28125-0.046875 0.0625-0.039062 0.09375-0.09375 0.09375-0.15625 0-0.050781-0.023437-0.085938-0.0625-0.10938-0.042969-0.03125-0.125-0.054687-0.25-0.078125l-0.10938-0.015625c-0.28125-0.03125-0.48047-0.09375-0.59375-0.1875-0.10547-0.09375-0.15625-0.23438-0.15625-0.42188 0-0.20703 0.066406-0.35938 0.20312-0.45312 0.14453-0.10156 0.36328-0.15625 0.65625-0.15625 0.11328 0 0.23438 0.011719 0.35938 0.03125 0.125 0.011719 0.25781 0.039063 0.40625 0.078125z"
         id="path8237" /></symbol><symbol
       id="s-59"
       overflow="visible"><path
         d="m0.32812-2.5781h0.84375l0.59375 1.375 0.59375-1.375h0.84375v2.5781h-0.625v-1.8906l-0.60938 1.3906h-0.42188l-0.59375-1.3906v1.8906h-0.625z"
         id="path8240" /></symbol><symbol
       id="i-0"
       overflow="visible"><path
         d="m0.28125-0.75v-1.1875h0.625v0.1875c0 0.10547-0.007812 0.24219-0.015625 0.40625v0.3125c0 0.15625 0.003906 0.27344 0.015625 0.34375 0.007812 0.0625 0.023438 0.10938 0.046875 0.14062 0.019531 0.042969 0.050781 0.074219 0.09375 0.09375 0.039063 0.023437 0.085937 0.03125 0.14062 0.03125 0.13281 0 0.23828-0.046875 0.3125-0.14062 0.070312-0.10156 0.10938-0.24219 0.10938-0.42188v-0.95312h0.625v1.9375h-0.625v-0.28125c-0.09375 0.11719-0.19531 0.19922-0.29688 0.25-0.10547 0.050781-0.21875 0.078125-0.34375 0.078125-0.23047 0-0.40234-0.066406-0.51562-0.20312-0.11719-0.13281-0.17188-0.33203-0.17188-0.59375z"
         id="path8243" /></symbol><symbol
       id="h-2"
       overflow="visible"><path
         d="m0.29688-1.9375h0.625v1.9062c0 0.25781-0.0625 0.45703-0.1875 0.59375-0.125 0.13281-0.30859 0.20312-0.54688 0.20312h-0.3125v-0.40625h0.10938c0.125 0 0.20703-0.027344 0.25-0.078125 0.039063-0.054688 0.0625-0.15625 0.0625-0.3125zm0-0.75h0.625v0.5h-0.625z"
         id="path8246" /></symbol><symbol
       id="r-7"
       overflow="visible"><path
         d="m1.5781-2.6875v0.40625h-0.34375c-0.09375 0-0.15625 0.015625-0.1875 0.046875s-0.046875 0.085937-0.046875 0.15625v0.14062h0.53125v0.4375h-0.53125v1.5h-0.625v-1.5h-0.3125v-0.4375h0.3125v-0.14062c0-0.20703 0.054688-0.35938 0.17188-0.45312 0.125-0.10156 0.30469-0.15625 0.54688-0.15625z"
         id="path8249" /></symbol><symbol
       id="e-2"
       overflow="visible"><path
         d="m1.2188-1.5469c-0.13672 0-0.24219 0.054687-0.3125 0.15625-0.074219 0.09375-0.10938 0.23438-0.10938 0.42188s0.035156 0.33594 0.10938 0.4375c0.070312 0.09375 0.17578 0.14062 0.3125 0.14062 0.13281 0 0.23828-0.046875 0.3125-0.14062 0.070312-0.10156 0.10938-0.25 0.10938-0.4375s-0.039063-0.32812-0.10938-0.42188c-0.074219-0.10156-0.17969-0.15625-0.3125-0.15625zm0-0.4375c0.33203 0 0.59375 0.089844 0.78125 0.26562 0.1875 0.17969 0.28125 0.42969 0.28125 0.75 0 0.32422-0.09375 0.57422-0.28125 0.75-0.1875 0.17969-0.44922 0.26562-0.78125 0.26562-0.33594 0-0.59375-0.085938-0.78125-0.26562-0.1875-0.17578-0.28125-0.42578-0.28125-0.75 0-0.32031 0.09375-0.57031 0.28125-0.75 0.1875-0.17578 0.44531-0.26562 0.78125-0.26562z"
         id="path8252" /></symbol><symbol
       id="q-7"
       overflow="visible"><path
         d="m2.0938-1.625c0.082031-0.11328 0.17578-0.20312 0.28125-0.26562 0.10156-0.0625 0.22266-0.09375 0.35938-0.09375 0.21875 0 0.38281 0.070313 0.5 0.20312 0.125 0.13672 0.1875 0.33594 0.1875 0.59375v1.1875h-0.625v-1.0156-0.03125-0.078125c0-0.13281-0.023437-0.23438-0.0625-0.29688-0.042969-0.0625-0.10938-0.09375-0.20312-0.09375-0.11719 0-0.20312 0.046875-0.26562 0.14062s-0.09375 0.23438-0.09375 0.42188v0.95312h-0.625v-1.0156c0-0.20703-0.023437-0.34375-0.0625-0.40625-0.03125-0.0625-0.09375-0.09375-0.1875-0.09375-0.125 0-0.21875 0.054687-0.28125 0.15625-0.0625 0.09375-0.09375 0.23047-0.09375 0.40625v0.95312h-0.625v-1.9375h0.625v0.28125c0.070313-0.10156 0.15625-0.17969 0.25-0.23438 0.10156-0.0625 0.21094-0.09375 0.32812-0.09375 0.13281 0 0.25391 0.03125 0.35938 0.09375 0.10156 0.0625 0.17969 0.15234 0.23438 0.26562z"
         id="path8255" /></symbol><symbol
       id="p-8"
       overflow="visible"><path
         d="m0.32812-2.5781h0.73438l0.95312 1.7656v-1.7656h0.625v2.5781h-0.75l-0.9375-1.7812v1.7812h-0.625z"
         id="path8258" /></symbol><symbol
       id="o-1"
       overflow="visible"><path
         d="m2.25-1.1875v1.1875h-0.625v-0.90625c0-0.16406-0.007812-0.28125-0.015625-0.34375 0-0.0625-0.011719-0.10938-0.03125-0.14062-0.03125-0.039063-0.070313-0.070313-0.10938-0.09375-0.042969-0.019531-0.089844-0.03125-0.14062-0.03125-0.125 0-0.22656 0.054687-0.29688 0.15625-0.074219 0.09375-0.10938 0.23047-0.10938 0.40625v0.95312h-0.625v-1.9375h0.625v0.28125c0.09375-0.11328 0.19141-0.19531 0.29688-0.25 0.10156-0.050781 0.21875-0.078125 0.34375-0.078125 0.22656 0 0.39844 0.070313 0.51562 0.20312 0.11328 0.13672 0.17188 0.33594 0.17188 0.59375z"
         id="path8261" /></symbol><symbol
       id="n-6"
       overflow="visible"><path
         d="m0.32812-2.5781h1.1094c0.32031 0 0.57031 0.074219 0.75 0.21875 0.17578 0.14844 0.26562 0.35156 0.26562 0.60938 0 0.28125-0.089844 0.49609-0.26562 0.64062-0.17969 0.14844-0.42969 0.21875-0.75 0.21875h-0.4375v0.89062h-0.67188zm0.67188 0.46875v0.73438h0.35938c0.13281 0 0.23438-0.03125 0.29688-0.09375 0.070312-0.0625 0.10938-0.15625 0.10938-0.28125 0-0.11328-0.039063-0.20312-0.10938-0.26562-0.0625-0.0625-0.16406-0.09375-0.29688-0.09375z"
         id="path8264" /></symbol><symbol
       id="m-2"
       overflow="visible"><path
         d="m1.8594-1.875v0.5c-0.085937-0.050781-0.16797-0.09375-0.25-0.125-0.085937-0.03125-0.17188-0.046875-0.26562-0.046875-0.16797 0-0.30469 0.054687-0.40625 0.15625-0.09375 0.10547-0.14062 0.24609-0.14062 0.42188 0 0.17969 0.046875 0.32031 0.14062 0.42188 0.10156 0.10547 0.23828 0.15625 0.40625 0.15625 0.10156 0 0.19531-0.015625 0.28125-0.046875 0.082031-0.03125 0.16016-0.070312 0.23438-0.125v0.5c-0.09375 0.042969-0.19531 0.066406-0.29688 0.078125-0.09375 0.019531-0.19531 0.03125-0.29688 0.03125-0.34375 0-0.61719-0.085938-0.8125-0.26562-0.19922-0.17578-0.29688-0.42578-0.29688-0.75 0-0.32031 0.097656-0.57031 0.29688-0.75 0.19531-0.17578 0.46875-0.26562 0.8125-0.26562 0.10156 0 0.20312 0.011719 0.29688 0.03125 0.10156 0.011719 0.20312 0.039063 0.29688 0.078125z"
         id="path8267" /></symbol><symbol
       id="u-5"
       overflow="visible"><path
         d="m18.766-1.125c-0.96875 0.5-1.9805 0.875-3.0312 1.125-1.043 0.25781-2.1367 0.39062-3.2812 0.39062-3.3984 0-6.0898-0.94531-8.0781-2.8438-1.9922-1.9062-2.9844-4.4844-2.9844-7.7344 0-3.2578 0.99219-5.8359 2.9844-7.7344 1.9883-1.9062 4.6797-2.8594 8.0781-2.8594 1.1445 0 2.2383 0.13281 3.2812 0.39062 1.0508 0.25 2.0625 0.625 3.0312 1.125v4.2188c-0.98047-0.65625-1.9453-1.1406-2.8906-1.4531-0.94922-0.3125-1.9492-0.46875-3-0.46875-1.875 0-3.3516 0.60547-4.4219 1.8125-1.0742 1.1992-1.6094 2.8555-1.6094 4.9688 0 2.1055 0.53516 3.7617 1.6094 4.9688 1.0703 1.1992 2.5469 1.7969 4.4219 1.7969 1.0508 0 2.0508-0.14844 3-0.45312 0.94531-0.3125 1.9102-0.80078 2.8906-1.4688z"
         id="path8545" /></symbol><symbol
       id="b-7"
       overflow="visible"><path
         d="m13.734-11.141c-0.4375-0.19531-0.87109-0.34375-1.2969-0.4375-0.41797-0.10156-0.83984-0.15625-1.2656-0.15625-1.2617 0-2.2305 0.40625-2.9062 1.2188-0.67969 0.80469-1.0156 1.9531-1.0156 3.4531v7.0625h-4.8906v-15.312h4.8906v2.5156c0.625-1 1.3438-1.7266 2.1562-2.1875 0.82031-0.46875 1.8008-0.70312 2.9375-0.70312 0.16406 0 0.34375 0.011719 0.53125 0.03125 0.19531 0.011719 0.47656 0.039062 0.84375 0.078125z"
         id="path8548" /></symbol><symbol
       id="a-8"
       overflow="visible"><path
         d="m17.641-7.7031v1.4062h-11.453c0.125 1.1484 0.53906 2.0078 1.25 2.5781 0.70703 0.57422 1.7031 0.85938 2.9844 0.85938 1.0312 0 2.082-0.14844 3.1562-0.45312 1.082-0.3125 2.1914-0.77344 3.3281-1.3906v3.7656c-1.1562 0.4375-2.3125 0.76562-3.4688 0.98438-1.1562 0.22656-2.3125 0.34375-3.4688 0.34375-2.7734 0-4.9297-0.70312-6.4688-2.1094-1.5312-1.4062-2.2969-3.3789-2.2969-5.9219 0-2.5 0.75391-4.4609 2.2656-5.8906 1.5078-1.4375 3.582-2.1562 6.2188-2.1562 2.4062 0 4.332 0.73047 5.7812 2.1875 1.4453 1.4492 2.1719 3.3828 2.1719 5.7969zm-5.0312-1.625c0-0.92578-0.27344-1.6719-0.8125-2.2344-0.54297-0.57031-1.25-0.85938-2.125-0.85938-0.94922 0-1.7188 0.26562-2.3125 0.79688s-0.96484 1.2969-1.1094 2.2969z"
         id="path8551" /></symbol><symbol
       id="d-5"
       overflow="visible"><path
         d="m9.2188-6.8906c-1.0234 0-1.793 0.17188-2.3125 0.51562-0.51172 0.34375-0.76562 0.85547-0.76562 1.5312 0 0.625 0.20703 1.1172 0.625 1.4688 0.41406 0.34375 0.98828 0.51562 1.7188 0.51562 0.92578 0 1.7031-0.32812 2.3281-0.98438 0.63281-0.66406 0.95312-1.4922 0.95312-2.4844v-0.5625zm7.4688-1.8438v8.7344h-4.9219v-2.2656c-0.65625 0.92969-1.3984 1.6055-2.2188 2.0312-0.82422 0.41406-1.8242 0.625-3 0.625-1.5859 0-2.8711-0.45703-3.8594-1.375-0.99219-0.92578-1.4844-2.1289-1.4844-3.6094 0-1.7891 0.61328-3.1016 1.8438-3.9375 1.2383-0.84375 3.1797-1.2656 5.8281-1.2656h2.8906v-0.39062c0-0.76953-0.30859-1.332-0.92188-1.6875-0.61719-0.36328-1.5703-0.54688-2.8594-0.54688-1.0547 0-2.0312 0.10547-2.9375 0.3125-0.89844 0.21094-1.7305 0.52344-2.5 0.9375v-3.7344c1.0391-0.25 2.0859-0.44141 3.1406-0.57812 1.0625-0.13281 2.125-0.20312 3.1875-0.20312 2.7578 0 4.75 0.54688 5.9688 1.6406 1.2266 1.0859 1.8438 2.8555 1.8438 5.3125z"
         id="path8554" /></symbol><symbol
       id="c-4"
       overflow="visible"><path
         d="m7.7031-19.656v4.3438h5.0469v3.5h-5.0469v6.5c0 0.71094 0.14062 1.1875 0.42188 1.4375s0.83594 0.375 1.6719 0.375h2.5156v3.5h-4.1875c-1.9375 0-3.3125-0.39844-4.125-1.2031-0.80469-0.8125-1.2031-2.1797-1.2031-4.1094v-6.5h-2.4219v-3.5h2.4219v-4.3438z"
         id="path8557" /></symbol><symbol
       id="k-67"
       overflow="visible"><path
         d="m12.766-13.078v-8.2031h4.9219v21.281h-4.9219v-2.2188c-0.66797 0.90625-1.4062 1.5703-2.2188 1.9844s-1.7578 0.625-2.8281 0.625c-1.8867 0-3.4336-0.75-4.6406-2.25-1.2109-1.5-1.8125-3.4258-1.8125-5.7812 0-2.3633 0.60156-4.2969 1.8125-5.7969 1.207-1.5 2.7539-2.25 4.6406-2.25 1.0625 0 2 0.21484 2.8125 0.64062 0.82031 0.42969 1.5664 1.0859 2.2344 1.9688zm-3.2188 9.9219c1.0391 0 1.8359-0.37891 2.3906-1.1406 0.55078-0.76953 0.82812-1.8828 0.82812-3.3438 0-1.457-0.27734-2.5664-0.82812-3.3281-0.55469-0.76953-1.3516-1.1562-2.3906-1.1562-1.043 0-1.8398 0.38672-2.3906 1.1562-0.55469 0.76172-0.82812 1.8711-0.82812 3.3281 0 1.4609 0.27344 2.5742 0.82812 3.3438 0.55078 0.76172 1.3477 1.1406 2.3906 1.1406z"
         id="path8560" /></symbol><symbol
       id="g-7"
       overflow="visible"><path
         d="m10.5-3.1562c1.0508 0 1.8516-0.37891 2.4062-1.1406 0.55078-0.76953 0.82812-1.8828 0.82812-3.3438 0-1.457-0.27734-2.5664-0.82812-3.3281-0.55469-0.76953-1.3555-1.1562-2.4062-1.1562-1.0547 0-1.8594 0.38672-2.4219 1.1562-0.55469 0.77344-0.82812 1.8828-0.82812 3.3281 0 1.4492 0.27344 2.5586 0.82812 3.3281 0.5625 0.77344 1.3672 1.1562 2.4219 1.1562zm-3.25-9.9219c0.67578-0.88281 1.4219-1.5391 2.2344-1.9688 0.82031-0.42578 1.7656-0.64062 2.8281-0.64062 1.8945 0 3.4453 0.75 4.6562 2.25 1.207 1.5 1.8125 3.4336 1.8125 5.7969 0 2.3555-0.60547 4.2812-1.8125 5.7812-1.2109 1.5-2.7617 2.25-4.6562 2.25-1.0625 0-2.0078-0.21094-2.8281-0.625-0.8125-0.42578-1.5586-1.0859-2.2344-1.9844v2.2188h-4.8906v-21.281h4.8906z"
         id="path8563" /></symbol><symbol
       id="f-0"
       overflow="visible"><path
         d="m0.34375-15.312h4.8906l4.125 10.391 3.5-10.391h4.8906l-6.4375 16.766c-0.64844 1.6953-1.4023 2.8828-2.2656 3.5625-0.86719 0.6875-2 1.0312-3.4062 1.0312h-2.8438v-3.2188h1.5312c0.83203 0 1.4375-0.13672 1.8125-0.40625 0.38281-0.26172 0.67969-0.73047 0.89062-1.4062l0.14062-0.42188z"
         id="path8566" /></symbol><symbol
       id="j-6"
       overflow="visible"><path
         d="m14.953-3.7188h-8.2188l-1.3125 3.7188h-5.2812l7.5625-20.406h6.2656l7.5625 20.406h-5.2812zm-6.9062-3.7812h5.5781l-2.7812-8.125z"
         id="path8569" /></symbol><symbol
       id="i-1"
       overflow="visible"><path
         d="m2.1875-5.9688v-9.3438h4.9219v1.5312c0 0.83594-0.007813 1.875-0.015625 3.125-0.011719 1.25-0.015625 2.0859-0.015625 2.5 0 1.2422 0.03125 2.1328 0.09375 2.6719 0.070313 0.54297 0.17969 0.93359 0.32812 1.1719 0.20703 0.32422 0.47266 0.57422 0.79688 0.75 0.32031 0.16797 0.69141 0.25 1.1094 0.25 1.0195 0 1.8203-0.39062 2.4062-1.1719 0.58203-0.78125 0.875-1.8672 0.875-3.2656v-7.5625h4.8906v15.312h-4.8906v-2.2188c-0.74219 0.89844-1.5234 1.5586-2.3438 1.9844-0.82422 0.41406-1.7344 0.625-2.7344 0.625-1.7617 0-3.1055-0.53906-4.0312-1.625-0.92969-1.082-1.3906-2.6602-1.3906-4.7344z"
         id="path8572" /></symbol><symbol
       id="t-87"
       overflow="visible"><path
         d="m2.5781-20.406h5.25v20.406h-5.25z"
         id="path8575" /></symbol><symbol
       id="s-0"
       overflow="visible"><path
         d="m0.98438-15.312h4.7656l2.5625 10.547 2.5781-10.547h4.0938l2.5781 10.438 2.5781-10.438h4.75l-4.0312 15.312h-5.3438l-2.5781-10.531-2.5781 10.531h-5.3438z"
         id="path8578" /></symbol><symbol
       id="h-1"
       overflow="visible"><path
         d="m17.75-9.3281v9.3281h-4.9219v-7.1406c0-1.3203-0.03125-2.2344-0.09375-2.7344s-0.16797-0.86719-0.3125-1.1094c-0.1875-0.3125-0.44922-0.55469-0.78125-0.73438-0.32422-0.17578-0.69531-0.26562-1.1094-0.26562-1.0234 0-1.8242 0.39844-2.4062 1.1875-0.58594 0.78125-0.875 1.8711-0.875 3.2656v7.5312h-4.8906v-15.312h4.8906v2.2344c0.73828-0.88281 1.5195-1.5391 2.3438-1.9688 0.83203-0.42578 1.75-0.64062 2.75-0.64062 1.7695 0 3.1133 0.54688 4.0312 1.6406 0.91406 1.0859 1.375 2.6562 1.375 4.7188z"
         id="path8581" /></symbol><symbol
       id="r-23"
       overflow="visible"><path
         d="m12.422-21.281v3.2188h-2.7031c-0.6875 0-1.1719 0.125-1.4531 0.375-0.27344 0.25-0.40625 0.6875-0.40625 1.3125v1.0625h4.1875v3.5h-4.1875v11.812h-4.8906v-11.812h-2.4375v-3.5h2.4375v-1.0625c0-1.6641 0.46094-2.8984 1.3906-3.7031 0.92578-0.80078 2.3672-1.2031 4.3281-1.2031z"
         id="path8584" /></symbol><symbol
       id="e-0"
       overflow="visible"><path
         d="m9.6406-12.188c-1.0859 0-1.9141 0.39062-2.4844 1.1719-0.57422 0.78125-0.85938 1.9062-0.85938 3.375s0.28516 2.5938 0.85938 3.375c0.57031 0.77344 1.3984 1.1562 2.4844 1.1562 1.0625 0 1.875-0.38281 2.4375-1.1562 0.57031-0.78125 0.85938-1.9062 0.85938-3.375s-0.28906-2.5938-0.85938-3.375c-0.5625-0.78125-1.375-1.1719-2.4375-1.1719zm0-3.5c2.6328 0 4.6914 0.71484 6.1719 2.1406 1.4766 1.418 2.2188 3.3867 2.2188 5.9062 0 2.5117-0.74219 4.4805-2.2188 5.9062-1.4805 1.418-3.5391 2.125-6.1719 2.125-2.6484 0-4.7148-0.70703-6.2031-2.125-1.4922-1.4258-2.2344-3.3945-2.2344-5.9062 0-2.5195 0.74219-4.4883 2.2344-5.9062 1.4883-1.4258 3.5547-2.1406 6.2031-2.1406z"
         id="path8587" /></symbol><symbol
       id="q-25"
       overflow="visible"><path
         d="m16.547-12.766c0.61328-0.94531 1.3477-1.6719 2.2031-2.1719 0.85156-0.5 1.7891-0.75 2.8125-0.75 1.7578 0 3.0977 0.54688 4.0156 1.6406 0.92578 1.0859 1.3906 2.6562 1.3906 4.7188v9.3281h-4.9219v-7.9844-0.35938c0.007813-0.13281 0.015625-0.32031 0.015625-0.5625 0-1.082-0.16406-1.8633-0.48438-2.3438-0.3125-0.48828-0.82422-0.73438-1.5312-0.73438-0.92969 0-1.6484 0.38672-2.1562 1.1562-0.51172 0.76172-0.77344 1.8672-0.78125 3.3125v7.5156h-4.9219v-7.9844c0-1.6953-0.14844-2.7852-0.4375-3.2656-0.29297-0.48828-0.8125-0.73438-1.5625-0.73438-0.9375 0-1.6641 0.38672-2.1719 1.1562-0.51172 0.76172-0.76562 1.8594-0.76562 3.2969v7.5312h-4.9219v-15.312h4.9219v2.2344c0.60156-0.86328 1.2891-1.5156 2.0625-1.9531 0.78125-0.4375 1.6406-0.65625 2.5781-0.65625 1.0625 0 2 0.25781 2.8125 0.76562 0.8125 0.51172 1.4258 1.2305 1.8438 2.1562z"
         id="path8590" /></symbol><symbol
       id="p-5"
       overflow="visible"><path
         d="m17.75-9.3281v9.3281h-4.9219v-7.1094c0-1.3438-0.03125-2.2656-0.09375-2.7656s-0.16797-0.86719-0.3125-1.1094c-0.1875-0.3125-0.44922-0.55469-0.78125-0.73438-0.32422-0.17578-0.69531-0.26562-1.1094-0.26562-1.0234 0-1.8242 0.39844-2.4062 1.1875-0.58594 0.78125-0.875 1.8711-0.875 3.2656v7.5312h-4.8906v-21.281h4.8906v8.2031c0.73828-0.88281 1.5195-1.5391 2.3438-1.9688 0.83203-0.42578 1.75-0.64062 2.75-0.64062 1.7695 0 3.1133 0.54688 4.0312 1.6406 0.91406 1.0859 1.375 2.6562 1.375 4.7188z"
         id="path8593" /></symbol><symbol
       id="o-4"
       overflow="visible"><path
         d="m2.5781-20.406h5.875l7.4219 14v-14h4.9844v20.406h-5.875l-7.4219-14v14h-4.9844z"
         id="path8596" /></symbol><symbol
       id="n-5"
       overflow="visible"><path
         d="m2.5781-20.406h8.7344c2.5938 0 4.582 0.57812 5.9688 1.7344 1.3945 1.1484 2.0938 2.7891 2.0938 4.9219 0 2.1367-0.69922 3.7812-2.0938 4.9375-1.3867 1.1562-3.375 1.7344-5.9688 1.7344h-3.4844v7.0781h-5.25zm5.25 3.8125v5.7031h2.9219c1.0195 0 1.8047-0.25 2.3594-0.75 0.5625-0.5 0.84375-1.2031 0.84375-2.1094 0-0.91406-0.28125-1.6172-0.84375-2.1094-0.55469-0.48828-1.3398-0.73438-2.3594-0.73438z"
         id="path8599" /></symbol><symbol
       id="m-0"
       overflow="visible"><path
         d="m2.3594-15.312h4.8906v15.031c0 2.0508-0.49609 3.6172-1.4844 4.7031-0.98047 1.082-2.4062 1.625-4.2812 1.625h-2.4219v-3.2188h0.85938c0.92578 0 1.5625-0.21094 1.9062-0.625 0.35156-0.41797 0.53125-1.2461 0.53125-2.4844zm0-5.9688h4.8906v4h-4.8906z"
         id="path8602" /></symbol><symbol
       id="l-1"
       overflow="visible"><path
         d="m14.719-14.828v3.9844c-0.65625-0.45703-1.3242-0.79688-2-1.0156-0.66797-0.21875-1.3594-0.32812-2.0781-0.32812-1.3672 0-2.4336 0.40234-3.2031 1.2031-0.76172 0.79297-1.1406 1.9062-1.1406 3.3438 0 1.4297 0.37891 2.543 1.1406 3.3438 0.76953 0.79297 1.8359 1.1875 3.2031 1.1875 0.75781 0 1.4844-0.10938 2.1719-0.32812 0.6875-0.22656 1.3203-0.56641 1.9062-1.0156v4c-0.76172 0.28125-1.5391 0.48828-2.3281 0.625-0.78125 0.14453-1.5742 0.21875-2.375 0.21875-2.7617 0-4.9219-0.70703-6.4844-2.125-1.5547-1.4141-2.3281-3.3828-2.3281-5.9062 0-2.5312 0.77344-4.5039 2.3281-5.9219 1.5625-1.4141 3.7227-2.125 6.4844-2.125 0.80078 0 1.5938 0.074219 2.375 0.21875 0.78125 0.13672 1.5547 0.35156 2.3281 0.64062z"
         id="path8605" /></symbol><symbol
       id="x-0"
       overflow="visible"><path
         d="m18.766-1.125c-0.96875 0.5-1.9805 0.875-3.0312 1.125-1.043 0.25781-2.1367 0.39062-3.2812 0.39062-3.3984 0-6.0898-0.94531-8.0781-2.8438-1.9922-1.9062-2.9844-4.4844-2.9844-7.7344 0-3.2578 0.99219-5.8359 2.9844-7.7344 1.9883-1.9062 4.6797-2.8594 8.0781-2.8594 1.1445 0 2.2383 0.13281 3.2812 0.39062 1.0508 0.25 2.0625 0.625 3.0312 1.125v4.2188c-0.98047-0.65625-1.9453-1.1406-2.8906-1.4531-0.94922-0.3125-1.9492-0.46875-3-0.46875-1.875 0-3.3516 0.60547-4.4219 1.8125-1.0742 1.1992-1.6094 2.8555-1.6094 4.9688 0 2.1055 0.53516 3.7617 1.6094 4.9688 1.0703 1.1992 2.5469 1.7969 4.4219 1.7969 1.0508 0 2.0508-0.14844 3-0.45312 0.94531-0.3125 1.9102-0.80078 2.8906-1.4688z"
         id="path9979" /></symbol><symbol
       id="b-9"
       overflow="visible"><path
         d="m13.734-11.141c-0.4375-0.19531-0.87109-0.34375-1.2969-0.4375-0.41797-0.10156-0.83984-0.15625-1.2656-0.15625-1.2617 0-2.2305 0.40625-2.9062 1.2188-0.67969 0.80469-1.0156 1.9531-1.0156 3.4531v7.0625h-4.8906v-15.312h4.8906v2.5156c0.625-1 1.3438-1.7266 2.1562-2.1875 0.82031-0.46875 1.8008-0.70312 2.9375-0.70312 0.16406 0 0.34375 0.011719 0.53125 0.03125 0.19531 0.011719 0.47656 0.039062 0.84375 0.078125z"
         id="path9982" /></symbol><symbol
       id="a-2"
       overflow="visible"><path
         d="m17.641-7.7031v1.4062h-11.453c0.125 1.1484 0.53906 2.0078 1.25 2.5781 0.70703 0.57422 1.7031 0.85938 2.9844 0.85938 1.0312 0 2.082-0.14844 3.1562-0.45312 1.082-0.3125 2.1914-0.77344 3.3281-1.3906v3.7656c-1.1562 0.4375-2.3125 0.76562-3.4688 0.98438-1.1562 0.22656-2.3125 0.34375-3.4688 0.34375-2.7734 0-4.9297-0.70312-6.4688-2.1094-1.5312-1.4062-2.2969-3.3789-2.2969-5.9219 0-2.5 0.75391-4.4609 2.2656-5.8906 1.5078-1.4375 3.582-2.1562 6.2188-2.1562 2.4062 0 4.332 0.73047 5.7812 2.1875 1.4453 1.4492 2.1719 3.3828 2.1719 5.7969zm-5.0312-1.625c0-0.92578-0.27344-1.6719-0.8125-2.2344-0.54297-0.57031-1.25-0.85938-2.125-0.85938-0.94922 0-1.7188 0.26562-2.3125 0.79688s-0.96484 1.2969-1.1094 2.2969z"
         id="path9985" /></symbol><symbol
       id="d-1"
       overflow="visible"><path
         d="m9.2188-6.8906c-1.0234 0-1.793 0.17188-2.3125 0.51562-0.51172 0.34375-0.76562 0.85547-0.76562 1.5312 0 0.625 0.20703 1.1172 0.625 1.4688 0.41406 0.34375 0.98828 0.51562 1.7188 0.51562 0.92578 0 1.7031-0.32812 2.3281-0.98438 0.63281-0.66406 0.95312-1.4922 0.95312-2.4844v-0.5625zm7.4688-1.8438v8.7344h-4.9219v-2.2656c-0.65625 0.92969-1.3984 1.6055-2.2188 2.0312-0.82422 0.41406-1.8242 0.625-3 0.625-1.5859 0-2.8711-0.45703-3.8594-1.375-0.99219-0.92578-1.4844-2.1289-1.4844-3.6094 0-1.7891 0.61328-3.1016 1.8438-3.9375 1.2383-0.84375 3.1797-1.2656 5.8281-1.2656h2.8906v-0.39062c0-0.76953-0.30859-1.332-0.92188-1.6875-0.61719-0.36328-1.5703-0.54688-2.8594-0.54688-1.0547 0-2.0312 0.10547-2.9375 0.3125-0.89844 0.21094-1.7305 0.52344-2.5 0.9375v-3.7344c1.0391-0.25 2.0859-0.44141 3.1406-0.57812 1.0625-0.13281 2.125-0.20312 3.1875-0.20312 2.7578 0 4.75 0.54688 5.9688 1.6406 1.2266 1.0859 1.8438 2.8555 1.8438 5.3125z"
         id="path9988" /></symbol><symbol
       id="e-7"
       overflow="visible"><path
         d="m7.7031-19.656v4.3438h5.0469v3.5h-5.0469v6.5c0 0.71094 0.14062 1.1875 0.42188 1.4375s0.83594 0.375 1.6719 0.375h2.5156v3.5h-4.1875c-1.9375 0-3.3125-0.39844-4.125-1.2031-0.80469-0.8125-1.2031-2.1797-1.2031-4.1094v-6.5h-2.4219v-3.5h2.4219v-4.3438z"
         id="path9991" /></symbol><symbol
       id="p-4"
       overflow="visible"><path
         d="m12.766-13.078v-8.2031h4.9219v21.281h-4.9219v-2.2188c-0.66797 0.90625-1.4062 1.5703-2.2188 1.9844s-1.7578 0.625-2.8281 0.625c-1.8867 0-3.4336-0.75-4.6406-2.25-1.2109-1.5-1.8125-3.4258-1.8125-5.7812 0-2.3633 0.60156-4.2969 1.8125-5.7969 1.207-1.5 2.7539-2.25 4.6406-2.25 1.0625 0 2 0.21484 2.8125 0.64062 0.82031 0.42969 1.5664 1.0859 2.2344 1.9688zm-3.2188 9.9219c1.0391 0 1.8359-0.37891 2.3906-1.1406 0.55078-0.76953 0.82812-1.8828 0.82812-3.3438 0-1.457-0.27734-2.5664-0.82812-3.3281-0.55469-0.76953-1.3516-1.1562-2.3906-1.1562-1.043 0-1.8398 0.38672-2.3906 1.1562-0.55469 0.76172-0.82812 1.8711-0.82812 3.3281 0 1.4609 0.27344 2.5742 0.82812 3.3438 0.55078 0.76172 1.3477 1.1406 2.3906 1.1406z"
         id="path9994" /></symbol><symbol
       id="g-8"
       overflow="visible"><path
         d="m10.5-3.1562c1.0508 0 1.8516-0.37891 2.4062-1.1406 0.55078-0.76953 0.82812-1.8828 0.82812-3.3438 0-1.457-0.27734-2.5664-0.82812-3.3281-0.55469-0.76953-1.3555-1.1562-2.4062-1.1562-1.0547 0-1.8594 0.38672-2.4219 1.1562-0.55469 0.77344-0.82812 1.8828-0.82812 3.3281 0 1.4492 0.27344 2.5586 0.82812 3.3281 0.5625 0.77344 1.3672 1.1562 2.4219 1.1562zm-3.25-9.9219c0.67578-0.88281 1.4219-1.5391 2.2344-1.9688 0.82031-0.42578 1.7656-0.64062 2.8281-0.64062 1.8945 0 3.4453 0.75 4.6562 2.25 1.207 1.5 1.8125 3.4336 1.8125 5.7969 0 2.3555-0.60547 4.2812-1.8125 5.7812-1.2109 1.5-2.7617 2.25-4.6562 2.25-1.0625 0-2.0078-0.21094-2.8281-0.625-0.8125-0.42578-1.5586-1.0859-2.2344-1.9844v2.2188h-4.8906v-21.281h4.8906z"
         id="path9997" /></symbol><symbol
       id="o-42"
       overflow="visible"><path
         d="m0.34375-15.312h4.8906l4.125 10.391 3.5-10.391h4.8906l-6.4375 16.766c-0.64844 1.6953-1.4023 2.8828-2.2656 3.5625-0.86719 0.6875-2 1.0312-3.4062 1.0312h-2.8438v-3.2188h1.5312c0.83203 0 1.4375-0.13672 1.8125-0.40625 0.38281-0.26172 0.67969-0.73047 0.89062-1.4062l0.14062-0.42188z"
         id="path10000" /></symbol><symbol
       id="n-3"
       overflow="visible"><path
         d="m16.781-19.766v4.3125c-1.125-0.5-2.2266-0.875-3.2969-1.125-1.0625-0.25781-2.0703-0.39062-3.0156-0.39062-1.25 0-2.1797 0.17969-2.7812 0.53125-0.60547 0.34375-0.90625 0.88281-0.90625 1.6094 0 0.54297 0.20312 0.96875 0.60938 1.2812 0.40625 0.30469 1.1406 0.5625 2.2031 0.78125l2.25 0.45312c2.2695 0.44922 3.8789 1.1406 4.8281 2.0781 0.95703 0.92969 1.4375 2.2461 1.4375 3.9531 0 2.25-0.66797 3.9297-2 5.0312-1.3359 1.0938-3.3711 1.6406-6.1094 1.6406-1.3047 0-2.6055-0.125-3.9062-0.375-1.3047-0.23828-2.6055-0.59766-3.9062-1.0781v-4.4531c1.3008 0.69922 2.5625 1.2266 3.7812 1.5781 1.2188 0.34375 2.3906 0.51562 3.5156 0.51562 1.1562 0 2.0352-0.1875 2.6406-0.5625 0.61328-0.38281 0.92188-0.9375 0.92188-1.6562 0-0.63281-0.21094-1.125-0.625-1.4688-0.41797-0.34375-1.2461-0.65625-2.4844-0.9375l-2.0312-0.4375c-2.043-0.4375-3.5391-1.1328-4.4844-2.0938-0.9375-0.95703-1.4062-2.25-1.4062-3.875 0-2.0312 0.65625-3.5938 1.9688-4.6875s3.1953-1.6406 5.6562-1.6406c1.125 0 2.2734 0.085938 3.4531 0.25 1.1875 0.16797 2.4141 0.42188 3.6875 0.76562z"
         id="path10003" /></symbol><symbol
       id="f-00"
       overflow="visible"><path
         d="m2.1875-5.9688v-9.3438h4.9219v1.5312c0 0.83594-0.007813 1.875-0.015625 3.125-0.011719 1.25-0.015625 2.0859-0.015625 2.5 0 1.2422 0.03125 2.1328 0.09375 2.6719 0.070313 0.54297 0.17969 0.93359 0.32812 1.1719 0.20703 0.32422 0.47266 0.57422 0.79688 0.75 0.32031 0.16797 0.69141 0.25 1.1094 0.25 1.0195 0 1.8203-0.39062 2.4062-1.1719 0.58203-0.78125 0.875-1.8672 0.875-3.2656v-7.5625h4.8906v15.312h-4.8906v-2.2188c-0.74219 0.89844-1.5234 1.5586-2.3438 1.9844-0.82422 0.41406-1.7344 0.625-2.7344 0.625-1.7617 0-3.1055-0.53906-4.0312-1.625-0.92969-1.082-1.3906-2.6602-1.3906-4.7344z"
         id="path10006" /></symbol><symbol
       id="m-38"
       overflow="visible"><path
         d="m7.25-2.2188v8.0469h-4.8906v-21.141h4.8906v2.2344c0.67578-0.88281 1.4219-1.5391 2.2344-1.9688 0.82031-0.42578 1.7656-0.64062 2.8281-0.64062 1.8945 0 3.4453 0.75 4.6562 2.25 1.207 1.5 1.8125 3.4336 1.8125 5.7969 0 2.3555-0.60547 4.2812-1.8125 5.7812-1.2109 1.5-2.7617 2.25-4.6562 2.25-1.0625 0-2.0078-0.21094-2.8281-0.625-0.8125-0.42578-1.5586-1.0859-2.2344-1.9844zm3.25-9.9062c-1.0547 0-1.8594 0.38672-2.4219 1.1562-0.55469 0.77344-0.82812 1.8828-0.82812 3.3281 0 1.4492 0.27344 2.5586 0.82812 3.3281 0.5625 0.77344 1.3672 1.1562 2.4219 1.1562 1.0508 0 1.8516-0.37891 2.4062-1.1406 0.55078-0.76953 0.82812-1.8828 0.82812-3.3438 0-1.457-0.27734-2.5664-0.82812-3.3281-0.55469-0.76953-1.3555-1.1562-2.4062-1.1562z"
         id="path10009" /></symbol><symbol
       id="w-3"
       overflow="visible"><path
         d="m0.98438-15.312h4.7656l2.5625 10.547 2.5781-10.547h4.0938l2.5781 10.438 2.5781-10.438h4.75l-4.0312 15.312h-5.3438l-2.5781-10.531-2.5781 10.531h-5.3438z"
         id="path10012" /></symbol><symbol
       id="l-9"
       overflow="visible"><path
         d="m2.3594-15.312h4.8906v15.312h-4.8906zm0-5.9688h4.8906v4h-4.8906z"
         id="path10015" /></symbol><symbol
       id="k-9"
       overflow="visible"><path
         d="m14.719-14.828v3.9844c-0.65625-0.45703-1.3242-0.79688-2-1.0156-0.66797-0.21875-1.3594-0.32812-2.0781-0.32812-1.3672 0-2.4336 0.40234-3.2031 1.2031-0.76172 0.79297-1.1406 1.9062-1.1406 3.3438 0 1.4297 0.37891 2.543 1.1406 3.3438 0.76953 0.79297 1.8359 1.1875 3.2031 1.1875 0.75781 0 1.4844-0.10938 2.1719-0.32812 0.6875-0.22656 1.3203-0.56641 1.9062-1.0156v4c-0.76172 0.28125-1.5391 0.48828-2.3281 0.625-0.78125 0.14453-1.5742 0.21875-2.375 0.21875-2.7617 0-4.9219-0.70703-6.4844-2.125-1.5547-1.4141-2.3281-3.3828-2.3281-5.9062 0-2.5312 0.77344-4.5039 2.3281-5.9219 1.5625-1.4141 3.7227-2.125 6.4844-2.125 0.80078 0 1.5938 0.074219 2.375 0.21875 0.78125 0.13672 1.5547 0.35156 2.3281 0.64062z"
         id="path10018" /></symbol><symbol
       id="j-3"
       overflow="visible"><path
         d="m17.75-9.3281v9.3281h-4.9219v-7.1094c0-1.3438-0.03125-2.2656-0.09375-2.7656s-0.16797-0.86719-0.3125-1.1094c-0.1875-0.3125-0.44922-0.55469-0.78125-0.73438-0.32422-0.17578-0.69531-0.26562-1.1094-0.26562-1.0234 0-1.8242 0.39844-2.4062 1.1875-0.58594 0.78125-0.875 1.8711-0.875 3.2656v7.5312h-4.8906v-21.281h4.8906v8.2031c0.73828-0.88281 1.5195-1.5391 2.3438-1.9688 0.83203-0.42578 1.75-0.64062 2.75-0.64062 1.7695 0 3.1133 0.54688 4.0312 1.6406 0.91406 1.0859 1.375 2.6562 1.375 4.7188z"
         id="path10021" /></symbol><symbol
       id="i-7"
       overflow="visible"><path
         d="m2.5781-20.406h8.7344c2.5938 0 4.582 0.57812 5.9688 1.7344 1.3945 1.1484 2.0938 2.7891 2.0938 4.9219 0 2.1367-0.69922 3.7812-2.0938 4.9375-1.3867 1.1562-3.375 1.7344-5.9688 1.7344h-3.4844v7.0781h-5.25zm5.25 3.8125v5.7031h2.9219c1.0195 0 1.8047-0.25 2.3594-0.75 0.5625-0.5 0.84375-1.2031 0.84375-2.1094 0-0.91406-0.28125-1.6172-0.84375-2.1094-0.55469-0.48828-1.3398-0.73438-2.3594-0.73438z"
         id="path10024" /></symbol><symbol
       id="v-9"
       overflow="visible"><path
         d="m12.766-2.5938c-0.66797 0.88672-1.4062 1.543-2.2188 1.9688-0.8125 0.41797-1.7578 0.625-2.8281 0.625-1.8672 0-3.4062-0.73438-4.625-2.2031-1.2188-1.4766-1.8281-3.3516-1.8281-5.625 0-2.2891 0.60938-4.1641 1.8281-5.625 1.2188-1.4688 2.7578-2.2031 4.625-2.2031 1.0703 0 2.0156 0.21484 2.8281 0.64062 0.8125 0.41797 1.5508 1.0742 2.2188 1.9688v-2.2656h4.9219v13.766c0 2.457-0.77734 4.3359-2.3281 5.6406-1.5547 1.3008-3.8086 1.9531-6.7656 1.9531-0.94922 0-1.8711-0.074219-2.7656-0.21875-0.89844-0.14844-1.7969-0.37109-2.7031-0.67188v-3.8125c0.86328 0.48828 1.7031 0.85156 2.5156 1.0938 0.82031 0.23828 1.6484 0.35938 2.4844 0.35938 1.6016 0 2.7734-0.35156 3.5156-1.0469 0.75-0.69922 1.125-1.7969 1.125-3.2969zm-3.2188-9.5312c-1.0117 0-1.8047 0.375-2.375 1.125-0.5625 0.74219-0.84375 1.7969-0.84375 3.1719 0 1.3984 0.26953 2.4609 0.8125 3.1875 0.55078 0.71875 1.3516 1.0781 2.4062 1.0781 1.0195 0 1.8125-0.36719 2.375-1.1094 0.5625-0.75 0.84375-1.8008 0.84375-3.1562 0-1.375-0.28125-2.4297-0.84375-3.1719-0.5625-0.75-1.3555-1.125-2.375-1.125z"
         id="path10027" /></symbol><symbol
       id="u-4"
       overflow="visible"><path
         d="m14.312-14.828v3.7188c-1.043-0.4375-2.0547-0.76562-3.0312-0.98438-0.98047-0.21875-1.9023-0.32812-2.7656-0.32812-0.92969 0-1.6211 0.11719-2.0781 0.34375-0.44922 0.23047-0.67188 0.58984-0.67188 1.0781 0 0.38672 0.17188 0.68359 0.51562 0.89062 0.34375 0.21094 0.95703 0.36719 1.8438 0.46875l0.85938 0.125c2.5078 0.32422 4.1953 0.85156 5.0625 1.5781 0.86328 0.73047 1.2969 1.8711 1.2969 3.4219 0 1.6367-0.60547 2.8672-1.8125 3.6875-1.1992 0.8125-2.9922 1.2188-5.375 1.2188-1.0234 0-2.0742-0.078125-3.1562-0.23438-1.0742-0.15625-2.1797-0.39453-3.3125-0.71875v-3.7188c0.96875 0.48047 1.9609 0.83984 2.9844 1.0781 1.0312 0.23047 2.0781 0.34375 3.1406 0.34375 0.95703 0 1.6758-0.12891 2.1562-0.39062 0.47656-0.26953 0.71875-0.66406 0.71875-1.1875 0-0.4375-0.16797-0.75781-0.5-0.96875-0.33594-0.21875-0.99609-0.38281-1.9844-0.5l-0.85938-0.10938c-2.1797-0.26953-3.7031-0.77344-4.5781-1.5156-0.875-0.73828-1.3125-1.8594-1.3125-3.3594 0-1.625 0.55078-2.8281 1.6562-3.6094 1.1133-0.78906 2.8203-1.1875 5.125-1.1875 0.89453 0 1.8359 0.074219 2.8281 0.21875 1 0.13672 2.082 0.35156 3.25 0.64062z"
         id="path10030" /></symbol><symbol
       id="c-1"
       overflow="visible"><path
         d="m9.6406-12.188c-1.0859 0-1.9141 0.39062-2.4844 1.1719-0.57422 0.78125-0.85938 1.9062-0.85938 3.375s0.28516 2.5938 0.85938 3.375c0.57031 0.77344 1.3984 1.1562 2.4844 1.1562 1.0625 0 1.875-0.38281 2.4375-1.1562 0.57031-0.78125 0.85938-1.9062 0.85938-3.375s-0.28906-2.5938-0.85938-3.375c-0.5625-0.78125-1.375-1.1719-2.4375-1.1719zm0-3.5c2.6328 0 4.6914 0.71484 6.1719 2.1406 1.4766 1.418 2.2188 3.3867 2.2188 5.9062 0 2.5117-0.74219 4.4805-2.2188 5.9062-1.4805 1.418-3.5391 2.125-6.1719 2.125-2.6484 0-4.7148-0.70703-6.2031-2.125-1.4922-1.4258-2.2344-3.3945-2.2344-5.9062 0-2.5195 0.74219-4.4883 2.2344-5.9062 1.4883-1.4258 3.5547-2.1406 6.2031-2.1406z"
         id="path10033" /></symbol><symbol
       id="h-27"
       overflow="visible"><path
         d="m17.75-9.3281v9.3281h-4.9219v-7.1406c0-1.3203-0.03125-2.2344-0.09375-2.7344s-0.16797-0.86719-0.3125-1.1094c-0.1875-0.3125-0.44922-0.55469-0.78125-0.73438-0.32422-0.17578-0.69531-0.26562-1.1094-0.26562-1.0234 0-1.8242 0.39844-2.4062 1.1875-0.58594 0.78125-0.875 1.8711-0.875 3.2656v7.5312h-4.8906v-15.312h4.8906v2.2344c0.73828-0.88281 1.5195-1.5391 2.3438-1.9688 0.83203-0.42578 1.75-0.64062 2.75-0.64062 1.7695 0 3.1133 0.54688 4.0312 1.6406 0.91406 1.0859 1.375 2.6562 1.375 4.7188z"
         id="path10036" /></symbol><symbol
       id="t-69"
       overflow="visible"><path
         d="m12.422-21.281v3.2188h-2.7031c-0.6875 0-1.1719 0.125-1.4531 0.375-0.27344 0.25-0.40625 0.6875-0.40625 1.3125v1.0625h4.1875v3.5h-4.1875v11.812h-4.8906v-11.812h-2.4375v-3.5h2.4375v-1.0625c0-1.6641 0.46094-2.8984 1.3906-3.7031 0.92578-0.80078 2.3672-1.2031 4.3281-1.2031z"
         id="path10039" /></symbol><symbol
       id="s-4"
       overflow="visible"><path
         d="m16.547-12.766c0.61328-0.94531 1.3477-1.6719 2.2031-2.1719 0.85156-0.5 1.7891-0.75 2.8125-0.75 1.7578 0 3.0977 0.54688 4.0156 1.6406 0.92578 1.0859 1.3906 2.6562 1.3906 4.7188v9.3281h-4.9219v-7.9844-0.35938c0.007813-0.13281 0.015625-0.32031 0.015625-0.5625 0-1.082-0.16406-1.8633-0.48438-2.3438-0.3125-0.48828-0.82422-0.73438-1.5312-0.73438-0.92969 0-1.6484 0.38672-2.1562 1.1562-0.51172 0.76172-0.77344 1.8672-0.78125 3.3125v7.5156h-4.9219v-7.9844c0-1.6953-0.14844-2.7852-0.4375-3.2656-0.29297-0.48828-0.8125-0.73438-1.5625-0.73438-0.9375 0-1.6641 0.38672-2.1719 1.1562-0.51172 0.76172-0.76562 1.8594-0.76562 3.2969v7.5312h-4.9219v-15.312h4.9219v2.2344c0.60156-0.86328 1.2891-1.5156 2.0625-1.9531 0.78125-0.4375 1.6406-0.65625 2.5781-0.65625 1.0625 0 2 0.25781 2.8125 0.76562 0.8125 0.51172 1.4258 1.2305 1.8438 2.1562z"
         id="path10042" /></symbol><symbol
       id="r-0"
       overflow="visible"><path
         d="m2.5781-20.406h5.875l7.4219 14v-14h4.9844v20.406h-5.875l-7.4219-14v14h-4.9844z"
         id="path10045" /></symbol><symbol
       id="q-6"
       overflow="visible"><path
         d="m2.3594-15.312h4.8906v15.031c0 2.0508-0.49609 3.6172-1.4844 4.7031-0.98047 1.082-2.4062 1.625-4.2812 1.625h-2.4219v-3.2188h0.85938c0.92578 0 1.5625-0.21094 1.9062-0.625 0.35156-0.41797 0.53125-1.2461 0.53125-2.4844zm0-5.9688h4.8906v4h-4.8906z"
         id="path10048" /></symbol></defs><sodipodi:namedview
     id="namedview134"
     pagecolor="#ffffff"
     bordercolor="#000000"
     borderopacity="0.25"
     inkscape:showpageshadow="2"
     inkscape:pageopacity="0.0"
     inkscape:pagecheckerboard="0"
     inkscape:deskcolor="#d1d1d1"
     showgrid="false"
     inkscape:zoom="2.1165588"
     inkscape:cx="227.96437"
     inkscape:cy="77.956729"
     inkscape:window-width="1920"
     inkscape:window-height="1017"
     inkscape:window-x="1912"
     inkscape:window-y="32"
     inkscape:window-maximized="1"
     inkscape:current-layer="g140"><inkscape:page
       x="0"
       y="0"
       id="page138"
       width="793.70081"
       height="1122.5197" /></sodipodi:namedview><g
     id="g140"
     inkscape:groupmode="layer"
     inkscape:label="Page 1"
     transform="matrix(1.3333333,0,0,1.3333333,0,7.4729658e-5)"><rect
       style="fill:#ffffff;stroke:#000000;stroke-width:1.5;stroke-linecap:round;stroke-linejoin:round;stroke-dasharray:none"
       id="rect4835"
       width="378.61246"
       height="104.84827"
       x="19.846966"
       y="13.820469"
       rx="0" /><g
       id="g144"
       transform="matrix(1.2476941,0,0,1.2476941,-450.15767,-94.141186)"><g
         id="path146" /></g><path
       d="m 388.64957,20.686997 0.0471,91.792993 -91.79299,0.0461 -0.0461,-91.792986 z"
       style="fill:none;stroke:#000000;stroke-width:0.441583;stroke-linecap:butt;stroke-linejoin:miter;stroke-miterlimit:4;stroke-dasharray:none;stroke-opacity:1"
       id="path162" /><g
       id="g166"
       transform="rotate(-89.969966,-77.729484,-76.6865)"><path
         d="m -266.839,31.488 91.793,0.002 0.001,91.793 -91.793,0.001 z"
         style="fill:none;stroke:#000000;stroke-width:0.441583;stroke-linecap:butt;stroke-linejoin:miter;stroke-miterlimit:4;stroke-dasharray:none;stroke-opacity:1"
         id="path168" /></g><text
       xml:space="preserve"
       style="font-size:8px;font-family:'Times New Roman';-inkscape-font-specification:'Times New Roman, ';text-align:center;text-anchor:middle;fill:#000000;stroke-width:2.25;stroke-linecap:round;stroke-linejoin:round"
       x="265.22818"
       y="71.426041"
       id="text689-2"><tspan
         sodipodi:role="line"
         id="tspan687-3"
         style="font-size:8px;stroke-width:2.25"
         x="265.22818"
         y="71.426041">15</tspan></text><g
       id="g8725"
       transform="translate(0.53152331)"><path
         d="m 305.18165,76.981955 -3.70098,0.142226 c -1.56584,0 -1.56584,2.989351 0.14222,2.989351 l 3.55878,-0.142226 0.14223,2.27783 c 0,0.85424 0.85424,1.423625 1.70804,0.996466 l 7.82956,-3.700997 c 0.99647,-0.427116 0.99647,-1.70805 0,-2.135152 l -7.97176,-3.558778 c -0.85424,-0.284898 -1.70806,0.284896 -1.70806,1.138692 v 1.992942 z"
         fill-rule="evenodd"
         id="path7378"
         style="stroke-width:0.114136" /><path
         d="m 379.39767,80.115006 h 3.55877 c 1.70806,-0.142226 1.56585,-2.989349 -0.14223,-2.989349 l -3.55877,0.142227 V 74.99006 c 0,-0.854247 -0.99647,-1.423632 -1.70806,-1.1387 l -7.97176,3.700991 c -0.99646,0.42713 -0.85424,1.850725 0,2.277827 l 8.11398,3.416566 c 0.85424,0.427124 1.70805,-0.142227 1.70805,-1.138694 z"
         fill-rule="evenodd"
         id="path7386"
         style="stroke-width:0.114136" /></g><path
       d="m 354.80973,70.840811 1.91924,11.791945 -11.98066,12.538017 c -0.26,0.27191 -0.272,0.697547 -0.0277,0.983387 l 3.05095,3.57796 c 0.25362,0.29791 0.69728,0.34325 1.00714,0.10419 l 14.5114,-11.209115 c 1.41904,-1.096941 2.23929,-2.797674 2.21423,-4.591083 l -0.20694,-14.497729 c -0.0397,-2.780717 -1.64617,-5.300114 -4.15056,-6.507953 l -5.05942,-2.440108 c -0.12312,1.626544 -0.53341,3.257855 -1.28405,4.814271 -0.75033,1.555771 -1.77154,2.892606 -2.968,4.002128 z"
       id="path943"
       style="stroke-width:0.145649;fill:#800000" /><path
       d="m 330.7454,70.840813 -1.91924,11.791945 11.98066,12.538016 c 0.26,0.271911 0.272,0.697546 0.0277,0.983386 l -3.05095,3.57796 c -0.25362,0.29791 -0.69728,0.34325 -1.00714,0.10419 l -14.5114,-11.209114 c -1.41904,-1.096941 -2.23929,-2.797674 -2.21423,-4.591083 l 0.20694,-14.497729 c 0.0397,-2.780717 1.64617,-5.300114 4.15056,-6.507953 l 5.05942,-2.440108 c 0.12312,1.626544 0.53341,3.257856 1.28405,4.814272 0.75033,1.555771 1.77154,2.892606 2.968,4.002127 z"
       id="path943-5"
       style="stroke-width:0.145649;fill:#800000" /><path
       d="m 342.77756,49.706343 c -5.40605,0 -9.78747,4.381417 -9.78747,9.787474 0,5.404898 4.38142,9.787478 9.78747,9.787478 5.40607,0 9.78748,-4.38258 9.78748,-9.787478 0,-5.406057 -4.38141,-9.787474 -9.78748,-9.787474 z m 0,13.457688 c -2.02656,0 -3.67021,-1.643652 -3.67021,-3.670214 0,-2.026562 1.64365,-3.67021 3.67021,-3.67021 2.02657,0 3.67022,1.643648 3.67022,3.67021 0,2.026562 -1.64365,3.670214 -3.67022,3.670214 z"
       id="path8614"
       style="stroke-width:0.145649" /><path
       d="m 347.67138,42.365627 v 4.604988 c -1.51854,-0.595676 -3.16613,-0.934776 -4.89411,-0.934776 -1.72725,0 -3.37498,0.339086 -4.8941,0.934776 v -4.604988 z"
       id="path8616"
       style="stroke-width:0.145649" /><path
       d="m 347.67138,30.130808 v 4.894103 h 1.71312 c 0.40508,0 0.73394,0.328846 0.73394,0.73394 v 2.202361 c 0,0.405079 -0.32885,0.73394 -0.73394,0.73394 h -13.21373 c -0.40508,0 -0.73393,-0.328846 -0.73393,-0.73394 v -2.202361 c 0,-0.405079 0.32884,-0.73394 0.73393,-0.73394 h 1.71255 v -4.894103 h -29.36287 v -4.893519 h 68.51335 v 4.894102 z"
       id="path8618"
       style="stroke-width:0.145649" /><g
       id="g8854"
       transform="translate(3.6313435,7.5)"><path
         d="m 67.014643,85.430237 h -3.55877 l -2e-5,1.993044 c 0,0.996467 -0.85381,1.565818 -1.70805,1.138694 l -8.11398,-3.416566 c -0.85424,-0.427102 -0.99646,-1.850697 0,-2.277827 l 7.97176,-3.700991 c 0.71159,-0.284932 1.70806,0.284453 1.70806,1.1387 v 2.277824 l 3.55877,-0.142227 h 11.527325 l 3.55877,0.142227 v -2.277824 c 0,-0.854247 0.99647,-1.423632 1.70806,-1.1387 l 7.97176,3.700991 c 0.99646,0.42713 0.85424,1.850725 0,2.277827 l -8.11398,3.416566 c -0.85424,0.427124 -1.70805,-0.142227 -1.70805,-1.138694 l -2e-5,-1.993044 h -3.55877 z"
         fill-rule="evenodd"
         id="path7386-5"
         style="stroke-width:0.114136"
         sodipodi:nodetypes="ccsccccsccccsccccsccc" /></g><g
       id="g8826"
       transform="translate(0.5286185)"
       style="fill:#000080"><path
         d="m 92.54132,60.580291 9.69527,6.981056 0.39411,17.337323 c 0.008,0.376117 0.30091,0.685573 0.67578,0.714947 l 4.68735,0.372655 c 0.38998,0.03132 0.73576,-0.25034 0.78583,-0.638482 l 2.33506,-18.187154 c 0.22776,-1.77907 -0.39483,-3.561675 -1.68069,-4.812086 L 99.036264,52.243436 c -1.994336,-1.938192 -4.911768,-2.583725 -7.536711,-1.666925 l -5.302967,1.852133 c 1.063082,1.237199 1.926474,2.680829 2.496244,4.312164 0.569532,1.63066 0.792713,3.29805 0.731238,4.928625 z"
         id="path943-9"
         style="stroke-width:0.145649;fill:#000080" /><path
         d="m 58.935407,60.580291 -9.69527,6.981056 -0.39411,17.337323 c -0.008,0.376114 -0.30091,0.685574 -0.67578,0.714944 l -4.68735,0.37266 c -0.38998,0.0313 -0.73576,-0.25034 -0.78583,-0.63848 l -2.33506,-18.187158 c -0.22776,-1.77907 0.39483,-3.561675 1.68069,-4.812086 L 52.440463,52.243436 c 1.994336,-1.938192 4.911768,-2.583725 7.536711,-1.666925 l 5.302967,1.852133 c -1.063082,1.237199 -1.926474,2.680829 -2.496244,4.312164 -0.569532,1.63066 -0.792713,3.29805 -0.731238,4.928625 z"
         id="path943-9-7"
         style="stroke-width:0.145649;fill:#000080" /></g><path
       d="m 76.267414,49.706343 c -5.40605,0 -9.78747,4.381417 -9.78747,9.787474 0,5.404898 4.38142,9.787478 9.78747,9.787478 5.40607,0 9.78748,-4.38258 9.78748,-9.787478 0,-5.406057 -4.38141,-9.787474 -9.78748,-9.787474 z m 0,13.457688 c -2.02656,0 -3.67021,-1.643652 -3.67021,-3.670214 0,-2.026562 1.64365,-3.67021 3.67021,-3.67021 2.02657,0 3.67022,1.643648 3.67022,3.67021 0,2.026562 -1.64365,3.670214 -3.67022,3.670214 z"
       id="path8614-6"
       style="stroke-width:0.145649" /><path
       d="m 81.161234,42.365627 v 4.604988 c -1.51854,-0.595676 -3.16613,-0.934776 -4.89411,-0.934776 -1.72725,0 -3.37498,0.339086 -4.8941,0.934776 v -4.604988 z"
       id="path8616-2"
       style="stroke-width:0.145649" /><path
       d="m 81.161234,30.130808 v 4.894103 h 1.71312 c 0.40508,0 0.73394,0.328846 0.73394,0.73394 v 2.202361 c 0,0.405079 -0.32885,0.73394 -0.73394,0.73394 h -13.21373 c -0.40508,0 -0.73393,-0.328846 -0.73393,-0.73394 v -2.202361 c 0,-0.405079 0.32884,-0.73394 0.73393,-0.73394 h 1.71255 v -4.894103 h -29.36287 v -4.893519 h 68.513356 v 4.894102 z"
       id="path8618-6"
       style="stroke-width:0.145649" /><g
       style="shape-rendering:crispEdges"
       id="g9849"
       transform="matrix(16.535433,0,0,16.535433,159.91695,17.000244)"><rect
         x="0"
         y="0"
         width="6"
         height="6"
         fill="#000000"
         id="rect9807" /><rect
         width="1"
         height="1"
         x="3"
         y="1"
         fill="#ffffff"
         id="rect9809" /><rect
         width="1"
         height="1.5"
         x="3"
         y="1"
         fill="#ffffff"
         id="rect9811" /><rect
         width="1.5"
         height="1"
         x="2"
         y="2"
         fill="#ffffff"
         id="rect9813" /><rect
         width="1"
         height="1"
         x="3"
         y="2"
         fill="#ffffff"
         id="rect9815" /><rect
         width="1"
         height="1.5"
         x="3"
         y="2"
         fill="#ffffff"
         id="rect9817" /><rect
         width="1.5"
         height="1"
         x="3"
         y="3"
         fill="#ffffff"
         id="rect9819" /><rect
         width="1"
         height="1.5"
         x="3"
         y="3"
         fill="#ffffff"
         id="rect9821" /><rect
         width="1"
         height="1"
         x="4"
         y="3"
         fill="#ffffff"
         id="rect9823" /><rect
         width="1.5"
         height="1"
         x="1"
         y="4"
         fill="#ffffff"
         id="rect9825" /><rect
         width="1.5"
         height="1"
         x="2"
         y="4"
         fill="#ffffff"
         id="rect9827" /><rect
         width="1"
         height="1"
         x="3"
         y="4"
         fill="#ffffff"
         id="rect9829" /></g></g></svg>
