0
SECTION
2
HEADER
9
$INSUNITS
70
4
9
$ACADVER
1
AC1014
9
$HANDSEED
5
FFFF
0
ENDSEC
0
SECTION
2
TABLES
0
TABLE
2
VPORT
5
8
100
AcDbSymbolTable
0
ENDTAB
0
TABLE
2
LTYPE
5
5
100
AcDbSymbolTable
0
LTYPE
5
14
100
AcDbSymbolTableRecord
100
AcDbLinetypeTableRecord
2
BYBLOCK
70
0
0
LTYPE
5
15
100
AcDbSymbolTableRecord
100
AcDbLinetypeTableRecord
2
BYLAYER
70
0
0
ENDTAB
0
TABLE
2
LAYER
5
2
100
AcDbSymbolTable
70
2
0
LAYER
5
50
100
AcDbSymbolTableRecord
100
AcDbLayerTableRecord
2
0
70
0
6
CONTINUOUS
0
ENDTAB
0
TABLE
2
STYLE
5
3
100
AcDbSymbolTable
70
1
0
STYLE
5
11
100
AcDbSymbolTableRecord
100
AcDbTextStyleTableRecord
2
STANDARD
70
0
0
ENDTAB
0
TABLE
2
VIEW
5
6
100
AcDbSymbolTable
70
0
0
ENDTAB
0
TABLE
2
UCS
5
7
100
AcDbSymbolTable
70
0
0
ENDTAB
0
TABLE
2
APPID
5
9
100
AcDbSymbolTable
70
2
0
APPID
5
12
100
AcDbSymbolTableRecord
100
AcDbRegAppTableRecord
2
ACAD
70
0
0
ENDTAB
0
TABLE
2
DIMSTYLE
5
A
100
AcDbSymbolTable
70
1
0
ENDTAB
0
TABLE
2
BLOCK_RECORD
5
1
100
AcDbSymbolTable
70
1
0
BLOCK_RECORD
5
1F
100
AcDbSymbolTableRecord
100
AcDbBlockTableRecord
2
*MODEL_SPACE
0
BLOCK_RECORD
5
1B
100
AcDbSymbolTableRecord
100
AcDbBlockTableRecord
2
*PAPER_SPACE
0
ENDTAB
0
ENDSEC
0
SECTION
2
BLOCKS
0
BLOCK
5
20
100
AcDbEntity
100
AcDbBlockBegin
2
*MODEL_SPACE
0
ENDBLK
5
21
100
AcDbEntity
100
AcDbBlockEnd
0
BLOCK
5
1C
100
AcDbEntity
100
AcDbBlockBegin
2
*PAPER_SPACE
0
ENDBLK
5
1D
100
AcDbEntity
100
AcDbBlockEnd
0
ENDSEC
0
SECTION
2
ENTITIES
0
LWPOLYLINE
5
100
100
AcDbEntity
8
0
100
AcDbPolyline
90
8
70
1
43
0.0
10
-26.400000000000002
20
-28.000000000000004
10
26.400000000000002
20
-28.000000000000004
42
0.41421356237309503
10
28.000000000000004
20
-26.399999999999999
10
28.000000000000004
20
26.399999999999999
42
0.41421356237309503
10
26.400000000000002
20
28
10
-26.400000000000002
20
28
42
0.41421356237309503
10
-28.000000000000004
20
26.399999999999991
10
-28.000000000000004
20
-26.400000000000002
42
0.41421356237309342
0
LINE
5
101
100
AcDbEntity
8
0
100
AcDbLine
10
20
20
-20
30
0
11
-20
21
-20
31
0
0
LINE
5
102
100
AcDbEntity
8
0
100
AcDbLine
10
-20
20
-20
30
0
11
-20
21
20
31
0
0
LINE
5
103
100
AcDbEntity
8
0
100
AcDbLine
10
-20
20
20
30
0
11
20
21
20
31
0
0
LINE
5
104
100
AcDbEntity
8
0
100
AcDbLine
10
20
20
20
30
0
11
20
21
-20
31
0
0
CIRCLE
5
105
100
AcDbEntity
8
0
100
AcDbCircle
10
0
20
24.000000000000004
30
0
40
2.4000000000000004
210
0
220
0
230
1
0
CIRCLE
5
106
100
AcDbEntity
8
0
100
AcDbCircle
10
0
20
-24.000000000000004
30
0
40
2.399999999999999
210
0
220
0
230
1
0
CIRCLE
5
107
100
AcDbEntity
8
0
100
AcDbCircle
10
24.000000000000004
20
0
30
0
40
2.4000000000000012
210
0
220
0
230
1
0
CIRCLE
5
108
100
AcDbEntity
8
0
100
AcDbCircle
10
-24.000000000000004
20
0
30
0
40
2.3999999999999995
210
0
220
0
230
1
0
CIRCLE
5
109
100
AcDbEntity
8
0
100
AcDbCircle
10
-24.000000000000004
20
24.000000000000004
30
0
40
2.3999999999999981
210
0
220
0
230
1
0
CIRCLE
5
110
100
AcDbEntity
8
0
100
AcDbCircle
10
24.000000000000004
20
24.000000000000004
30
0
40
2.4000000000000021
210
0
220
0
230
1
0
CIRCLE
5
111
100
AcDbEntity
8
0
100
AcDbCircle
10
-24.000000000000004
20
-24.000000000000004
30
0
40
2.3999999999999986
210
0
220
0
230
1
0
CIRCLE
5
112
100
AcDbEntity
8
0
100
AcDbCircle
10
24.000000000000004
20
-24.000000000000004
30
0
40
2.4000000000000021
210
0
220
0
230
1
0
LWPOLYLINE
5
113
100
AcDbEntity
8
0
100
AcDbPolyline
90
4
70
1
43
0.0
10
-12.000000000000002
20
-20
10
12.000000000000002
20
-20
10
12.000000000000002
20
20
10
-12.000000000000002
20
20
0
LINE
5
114
100
AcDbEntity
8
0
100
AcDbLine
10
-20
20
-20
30
0
11
20
21
-20
31
0
0
LINE
5
115
100
AcDbEntity
8
0
100
AcDbLine
10
20
20
-20
30
0
11
20
21
4.0000000000000036
31
0
0
LINE
5
116
100
AcDbEntity
8
0
100
AcDbLine
10
20
20
4.0000000000000036
30
0
11
-20
21
4.0000000000000036
31
0
0
LINE
5
117
100
AcDbEntity
8
0
100
AcDbLine
10
-20
20
4.0000000000000036
30
0
11
-20
21
-20
31
0
0
LINE
5
118
100
AcDbEntity
8
0
100
AcDbLine
10
-20
20
-20
30
0
11
-12.000000000000002
21
-20
31
0
0
LINE
5
119
100
AcDbEntity
8
0
100
AcDbLine
10
-12.000000000000002
20
-20
30
0
11
-12.000000000000002
21
-12.000000000000002
31
0
0
LINE
5
120
100
AcDbEntity
8
0
100
AcDbLine
10
-20
20
-12.000000000000002
30
0
11
-20
21
-20
31
0
0
CIRCLE
5
121
100
AcDbEntity
8
0
100
AcDbCircle
10
-16
20
-16
30
0
40
2.4000000000000012
210
0
220
0
230
1
0
CIRCLE
5
122
100
AcDbEntity
8
0
100
AcDbCircle
10
-8
20
-16
30
0
40
2.4000000000000012
210
0
220
0
230
1
0
CIRCLE
5
123
100
AcDbEntity
8
0
100
AcDbCircle
10
0
20
-16
30
0
40
2.4000000000000012
210
0
220
0
230
1
0
CIRCLE
5
124
100
AcDbEntity
8
0
100
AcDbCircle
10
8.0000000000000036
20
-16
30
0
40
2.4000000000000012
210
0
220
0
230
1
0
CIRCLE
5
125
100
AcDbEntity
8
0
100
AcDbCircle
10
16
20
-16
30
0
40
2.4000000000000012
210
0
220
0
230
1
0
CIRCLE
5
126
100
AcDbEntity
8
0
100
AcDbCircle
10
-16
20
-8
30
0
40
2.4000000000000012
210
0
220
0
230
1
0
CIRCLE
5
127
100
AcDbEntity
8
0
100
AcDbCircle
10
-8
20
-8
30
0
40
2.4000000000000012
210
0
220
0
230
1
0
CIRCLE
5
128
100
AcDbEntity
8
0
100
AcDbCircle
10
0
20
-8
30
0
40
2.4000000000000012
210
0
220
0
230
1
0
CIRCLE
5
129
100
AcDbEntity
8
0
100
AcDbCircle
10
8.0000000000000036
20
-8
30
0
40
2.4000000000000012
210
0
220
0
230
1
0
CIRCLE
5
130
100
AcDbEntity
8
0
100
AcDbCircle
10
16
20
-8
30
0
40
2.4000000000000012
210
0
220
0
230
1
0
CIRCLE
5
131
100
AcDbEntity
8
0
100
AcDbCircle
10
-16
20
0
30
0
40
2.4000000000000012
210
0
220
0
230
1
0
CIRCLE
5
132
100
AcDbEntity
8
0
100
AcDbCircle
10
-8
20
0
30
0
40
2.4000000000000012
210
0
220
0
230
1
0
CIRCLE
5
133
100
AcDbEntity
8
0
100
AcDbCircle
10
0
20
0
30
0
40
2.4000000000000012
210
0
220
0
230
1
0
CIRCLE
5
134
100
AcDbEntity
8
0
100
AcDbCircle
10
8.0000000000000036
20
0
30
0
40
2.4000000000000012
210
0
220
0
230
1
0
CIRCLE
5
135
100
AcDbEntity
8
0
100
AcDbCircle
10
16
20
0
30
0
40
2.4000000000000012
210
0
220
0
230
1
0
CIRCLE
5
136
100
AcDbEntity
8
0
100
AcDbCircle
10
-16
20
8.0000000000000036
30
0
40
2.4000000000000012
210
0
220
0
230
1
0
CIRCLE
5
137
100
AcDbEntity
8
0
100
AcDbCircle
10
-8
20
8.0000000000000036
30
0
40
2.4000000000000012
210
0
220
0
230
1
0
CIRCLE
5
138
100
AcDbEntity
8
0
100
AcDbCircle
10
0
20
8.0000000000000036
30
0
40
2.4000000000000012
210
0
220
0
230
1
0
CIRCLE
5
139
100
AcDbEntity
8
0
100
AcDbCircle
10
8.0000000000000036
20
8.0000000000000036
30
0
40
2.4000000000000012
210
0
220
0
230
1
0
CIRCLE
5
140
100
AcDbEntity
8
0
100
AcDbCircle
10
16
20
8.0000000000000036
30
0
40
2.4000000000000012
210
0
220
0
230
1
0
CIRCLE
5
141
100
AcDbEntity
8
0
100
AcDbCircle
10
-16
20
16
30
0
40
2.4000000000000012
210
0
220
0
230
1
0
CIRCLE
5
142
100
AcDbEntity
8
0
100
AcDbCircle
10
-8
20
16
30
0
40
2.4000000000000012
210
0
220
0
230
1
0
CIRCLE
5
143
100
AcDbEntity
8
0
100
AcDbCircle
10
0
20
16
30
0
40
2.4000000000000012
210
0
220
0
230
1
0
CIRCLE
5
144
100
AcDbEntity
8
0
100
AcDbCircle
10
8.0000000000000036
20
16
30
0
40
2.4000000000000012
210
0
220
0
230
1
0
CIRCLE
5
145
100
AcDbEntity
8
0
100
AcDbCircle
10
16
20
16
30
0
40
2.4000000000000012
210
0
220
0
230
1
0
LINE
5
146
100
AcDbEntity
8
0
100
AcDbLine
10
-28.000000000000004
20
-28.000000000000004
30
0
11
-27.531370849898479
21
-27.531370849898479
31
0
0
LINE
5
147
100
AcDbEntity
8
0
100
AcDbLine
10
20
20
4.0000000000000036
30
0
11
28.000000000000004
21
4.0000000000000036
31
0
0
LINE
5
148
100
AcDbEntity
8
0
100
AcDbLine
10
-20
20
4.0000000000000036
30
0
11
-28.000000000000004
21
4.0000000000000036
31
0
0
CIRCLE
5
149
100
AcDbEntity
8
0
100
AcDbCircle
10
0
20
24.000000000000004
30
0
40
2.4000000000000004
210
0
220
0
230
1
0
CIRCLE
5
150
100
AcDbEntity
8
0
100
AcDbCircle
10
0
20
24.000000000000004
30
0
40
2.4000000000000004
210
0
220
0
230
1
0
CIRCLE
5
151
100
AcDbEntity
8
0
100
AcDbCircle
10
-8
20
24.000000000000004
30
0
40
2.3999999999999999
210
0
220
0
230
1
0
CIRCLE
5
152
100
AcDbEntity
8
0
100
AcDbCircle
10
8.0000000000000036
20
24.000000000000004
30
0
40
2.4000000000000004
210
0
220
0
230
1
0
CIRCLE
5
153
100
AcDbEntity
8
0
100
AcDbCircle
10
24.000000000000004
20
8.0000000000000036
30
0
40
2.4000000000000026
210
0
220
0
230
1
0
CIRCLE
5
154
100
AcDbEntity
8
0
100
AcDbCircle
10
-24.000000000000004
20
8.0000000000000036
30
0
40
2.4000000000000012
210
0
220
0
230
1
0
CIRCLE
5
155
100
AcDbEntity
8
0
100
AcDbCircle
10
24.000000000000004
20
-8
30
0
40
2.4000000000000004
210
0
220
0
230
1
0
CIRCLE
5
156
100
AcDbEntity
8
0
100
AcDbCircle
10
-24.000000000000004
20
-8
30
0
40
2.3999999999999995
210
0
220
0
230
1
0
CIRCLE
5
157
100
AcDbEntity
8
0
100
AcDbCircle
10
8.0000000000000036
20
-24.000000000000004
30
0
40
2.3999999999999999
210
0
220
0
230
1
0
CIRCLE
5
158
100
AcDbEntity
8
0
100
AcDbCircle
10
-8
20
-24.000000000000004
30
0
40
2.4000000000000012
210
0
220
0
230
1
0
ENDSEC
0
SECTION
2
OBJECTS
0
DICTIONARY
5
C
100
AcDbDictionary
3
ACAD_GROUP
350
D
3
ACAD_MLINESTYLE
350
17
0
DICTIONARY
5
D
100
AcDbDictionary
0
DICTIONARY
5
1A
330
C
100
AcDbDictionary
0
DICTIONARY
5
17
100
AcDbDictionary
0
ENDSEC
0
EOF
